<?xml version="1.0" encoding="UTF-8"?><svg id="Capa_2" xmlns="http://www.w3.org/2000/svg" viewBox="0 0 19.89 41.98"><defs><style>.cls-1{fill:#fff;stroke-width:0px;}</style></defs><g id="Capa_1-2"><polygon class="cls-1" points="10.34 25.64 10.67 24.92 10.12 25.47 9.98 24.68 9.84 25.47 9.29 24.92 9.62 25.64 8.87 25.54 9.53 25.92 8.87 26.31 9.62 26.2 9.29 26.93 9.84 26.38 9.98 27.17 10.12 26.38 10.67 26.93 10.34 26.2 11.1 26.31 10.43 25.92 11.1 25.54 10.34 25.64"/><polygon class="cls-1" points="10.34 30.58 10.67 29.85 10.12 30.41 9.98 29.61 9.84 30.41 9.29 29.85 9.62 30.58 8.87 30.48 9.53 30.86 8.87 31.25 9.62 31.14 9.29 31.87 9.84 31.31 9.98 32.11 10.12 31.31 10.67 31.87 10.34 31.14 11.1 31.25 10.43 30.86 11.1 30.48 10.34 30.58"/><polygon class="cls-1" points="10.34 35.52 10.67 34.79 10.12 35.34 9.98 34.55 9.84 35.34 9.29 34.79 9.62 35.52 8.87 35.41 9.53 35.8 8.87 36.18 9.62 36.08 9.29 36.8 9.84 36.25 9.98 37.04 10.12 36.25 10.67 36.8 10.34 36.08 11.1 36.18 10.43 35.8 11.1 35.41 10.34 35.52"/><polygon class="cls-1" points="10.34 40.45 10.67 39.72 10.12 40.28 9.98 39.49 9.84 40.28 9.29 39.72 9.62 40.45 8.87 40.35 9.53 40.73 8.87 41.12 9.62 41.01 9.29 41.74 9.84 41.18 9.98 41.98 10.12 41.18 10.67 41.74 10.34 41.01 11.1 41.12 10.43 40.73 11.1 40.35 10.34 40.45"/><polygon class="cls-1" points="13.58 28.33 13.9 27.6 13.35 28.15 13.21 27.36 13.07 28.15 12.52 27.6 12.85 28.33 12.1 28.22 12.77 28.61 12.1 28.99 12.85 28.89 12.52 29.61 13.07 29.06 13.21 29.85 13.35 29.06 13.9 29.61 13.58 28.89 14.33 28.99 13.66 28.61 14.33 28.22 13.58 28.33"/><polygon class="cls-1" points="7.11 28.33 7.44 27.6 6.89 28.15 6.75 27.36 6.61 28.15 6.06 27.6 6.39 28.33 5.64 28.22 6.3 28.61 5.64 28.99 6.39 28.89 6.06 29.61 6.61 29.06 6.75 29.85 6.89 29.06 7.44 29.61 7.11 28.89 7.87 28.99 7.2 28.61 7.87 28.22 7.11 28.33"/><polygon class="cls-1" points="10.34 20.71 10.67 19.98 10.12 20.54 9.98 19.74 9.84 20.54 9.29 19.98 9.62 20.71 8.87 20.6 9.53 20.99 8.87 21.37 9.62 21.27 9.29 22 9.84 21.44 9.98 22.23 10.12 21.44 10.67 22 10.34 21.27 11.1 21.37 10.43 20.99 11.1 20.6 10.34 20.71"/><polygon class="cls-1" points="10.34 15.77 10.67 15.05 10.12 15.6 9.98 14.81 9.84 15.6 9.29 15.05 9.62 15.77 8.87 15.67 9.53 16.05 8.87 16.44 9.62 16.33 9.29 17.06 9.84 16.51 9.98 17.3 10.12 16.51 10.67 17.06 10.34 16.33 11.1 16.44 10.43 16.05 11.1 15.67 10.34 15.77"/><polygon class="cls-1" points="10.34 10.84 10.67 10.11 10.12 10.66 9.98 9.87 9.84 10.66 9.29 10.11 9.62 10.84 8.87 10.73 9.53 11.12 8.87 11.5 9.62 11.4 9.29 12.13 9.84 11.57 9.98 12.36 10.12 11.57 10.67 12.13 10.34 11.4 11.1 11.5 10.43 11.12 11.1 10.73 10.34 10.84"/><polygon class="cls-1" points="10.34 5.9 10.67 5.17 10.12 5.73 9.98 4.94 9.84 5.73 9.29 5.17 9.62 5.9 8.87 5.8 9.53 6.18 8.87 6.57 9.62 6.46 9.29 7.19 9.84 6.63 9.98 7.43 10.12 6.63 10.67 7.19 10.34 6.46 11.1 6.57 10.43 6.18 11.1 5.8 10.34 5.9"/><polygon class="cls-1" points="10.34 .97 10.67 .24 10.12 .79 9.98 0 9.84 .79 9.29 .24 9.62 .97 8.87 .86 9.53 1.25 8.87 1.63 9.62 1.53 9.29 2.25 9.84 1.7 9.98 2.49 10.12 1.7 10.67 2.25 10.34 1.53 11.1 1.63 10.43 1.25 11.1 .86 10.34 .97"/><polygon class="cls-1" points="5.65 26.2 6.41 26.31 5.74 25.92 6.41 25.54 5.65 25.64 5.98 24.92 5.43 25.47 5.29 24.68 5.15 25.47 4.6 24.92 4.93 25.64 4.18 25.54 4.84 25.92 4.18 26.31 4.93 26.2 4.6 26.93 5.15 26.38 5.29 27.17 5.43 26.38 5.98 26.93 5.65 26.2"/><polygon class="cls-1" points="14.89 25.64 15.22 24.92 14.66 25.47 14.53 24.68 14.39 25.47 13.84 24.92 14.16 25.64 13.41 25.54 14.08 25.92 13.41 26.31 14.16 26.2 13.84 26.93 14.39 26.38 14.53 27.17 14.66 26.38 15.22 26.93 14.89 26.2 15.64 26.31 14.97 25.92 15.64 25.54 14.89 25.64"/><polygon class="cls-1" points="19.22 25.92 19.89 25.54 19.13 25.64 19.46 24.92 18.91 25.47 18.77 24.68 18.63 25.47 18.08 24.92 18.41 25.64 17.65 25.54 18.32 25.92 17.65 26.31 18.41 26.2 18.08 26.93 18.63 26.38 18.77 27.17 18.91 26.38 19.46 26.93 19.13 26.2 19.89 26.31 19.22 25.92"/><polygon class="cls-1" points="1.48 25.64 1.8 24.92 1.25 25.47 1.12 24.68 .98 25.47 .43 24.92 .75 25.64 0 25.54 .67 25.92 0 26.31 .75 26.2 .43 26.93 .98 26.38 1.12 27.17 1.25 26.38 1.8 26.93 1.48 26.2 2.23 26.31 1.56 25.92 2.23 25.54 1.48 25.64"/></g></svg>