<svg width="617" height="220" viewBox="0 0 617 220" fill="none" xmlns="http://www.w3.org/2000/svg">
<path fill-rule="evenodd" clip-rule="evenodd" d="M399.118 0.709889C399.308 0.580088 399.428 0.470233 399.518 0.387844C399.608 0.305462 399.668 0.250541 399.737 0.230598C400.157 0.110939 402.216 0.431988 402.475 0.811895C403.495 0.672617 404.513 1.59262 405.492 3.43198V3.43208C405.532 3.57197 405.571 3.7119 405.791 3.95182L405.871 4.23168C405.708 4.65776 405.804 5.36701 405.873 5.88101V5.88123V5.8814V5.8816V5.88184V5.88212V5.88246L405.873 5.88286L405.874 5.88411L405.874 5.88506C405.915 6.18866 405.947 6.42343 405.909 6.49018L405.908 6.53791L405.905 6.60784V6.60855V6.60904V6.60967V6.61016V6.61079V6.61128V6.61191V6.6124V6.61303V6.61352V6.61415V6.61464V6.61527V6.61576V6.61639V6.61687V6.6175V6.61799V6.61862V6.6191V6.61973C405.878 7.29471 405.791 9.45324 405.328 10.2873L405.187 11.3864C404.445 15.6831 403.523 18.8204 402.703 20.7186C402.442 22.4573 401.801 24.4555 400.841 26.3936C396.998 34.146 394.716 41 394.172 47.0556L393.671 49.0139C393.05 51.6118 392.409 54.6693 392.449 54.8093C392.528 56.1484 392.327 57.5673 391.986 59.0261C391.446 60.8446 391.505 62.6434 391.943 64.1826C392.122 65.342 392.162 65.4819 393.182 65.3426C393.741 65.1831 394.161 65.0634 394.481 65.1236C394.901 65.0039 395.52 65.5839 395.5 66.0436C395.4 66.2234 395.24 66.723 395.279 66.8629C395.159 67.5024 395.179 68.102 395.378 68.8016C395.657 69.7812 395.217 70.3605 393.958 70.7195C393.118 70.9588 391.639 71.0778 390.94 70.2179C389.921 70.3572 386.925 67.2775 386.146 66.1377C386.131 66.0865 386.082 65.9844 386.019 65.8549L386.019 65.8547C385.911 65.6304 385.763 65.3242 385.687 65.0582L385.469 61.6403C385.529 61.3206 385.49 61.1807 385.35 61.2206L384.79 61.3801L384.09 62.6388C380.508 68.6526 377.228 72.0083 374.15 72.8858C372.611 73.3245 370.872 73.0636 369.254 72.1632C368.714 71.8631 367.635 71.2628 366.077 70.0427C364.519 68.8226 363.72 68.1425 363.6 67.7227C362.922 65.3439 362.663 63.9047 362.784 63.2652C362.387 58.6881 364.549 52.4736 369.091 44.5218C370.352 42.0442 372.031 40.5063 374.13 39.908C377.069 39.0704 379.967 39.1521 382.824 40.1532C383.644 40.3736 384.643 40.694 386.041 41.3544C386.181 41.3145 386.321 41.2746 386.501 41.3747L386.821 41.4348C387.52 41.2354 388.762 38.1582 390.504 32.0634C390.768 31.1254 391.116 29.6683 391.484 28.1323C391.954 26.1668 392.455 24.0723 392.848 22.7711C393.005 22.4898 393.221 21.6973 393.444 20.8815L393.444 20.8809L393.444 20.8803L393.444 20.8797L393.444 20.8791L393.445 20.8785L393.445 20.8779L393.445 20.8772L393.445 20.8766L393.445 20.876L393.446 20.8754L393.446 20.8748L393.446 20.8742L393.446 20.8735L393.446 20.8729L393.447 20.8723L393.447 20.8717L393.447 20.871L393.447 20.8705L393.447 20.8698L393.447 20.8692L393.448 20.8686C393.651 20.1245 393.858 19.3631 394.03 18.9544C394.219 18.6148 394.35 17.9544 394.488 17.2572C394.643 16.4777 394.807 15.6522 395.071 15.1776L396.193 11.6807C396.179 11.2627 396.506 10.2329 396.78 9.3699L396.78 9.36952L396.78 9.36894C396.899 8.99441 397.008 8.65135 397.074 8.40343C398.156 3.70726 398.818 1.24934 399.118 0.709889ZM370.516 67.5671C373.575 65.0307 376.635 61.435 379.476 56.5401C379.737 55.8607 380.137 55.1414 380.577 54.5621C380.904 54.131 381.276 53.2683 381.486 52.781C381.559 52.6134 381.612 52.4902 381.637 52.4442L384.459 46.9496C385.659 44.7918 385.48 44.6918 383.202 44.1308C383.132 44.1507 382.972 44.1206 382.812 44.0906C382.652 44.0605 382.492 44.0304 382.422 44.0503C382.174 44.121 381.743 44.0661 381.293 44.0091C380.727 43.9372 380.134 43.8619 379.844 44.0288C377.685 44.9468 375.605 47.204 373.744 50.7604C371.883 54.3169 370.782 57.3542 370.34 60.0521C370.08 60.7315 369.8 61.8705 369.539 63.6092C369.117 66.9067 369.516 68.306 370.516 67.5671ZM417.419 61.9135C417.558 62.9329 416.857 65.2509 415.236 68.5876C413.655 72.0643 412.655 73.8625 411.915 73.922C411.658 73.9952 411.702 71.1524 411.739 68.8053V68.8049V68.8046V68.8043V68.8034C411.762 67.314 411.782 66.0246 411.72 65.8073C411.68 65.6674 411.141 64.308 410.882 63.9281C409.304 62.1083 409.945 59.0508 412.184 58.4126C412.624 57.8333 413.144 57.5338 413.844 57.3344L414.264 57.2147L414.583 57.2749C415.902 57.6554 416.801 59.2149 417.419 61.9135ZM361.559 68.9095L361.279 68.9893C360.96 68.9291 360.32 68.8088 360.04 68.8886C359.9 68.9285 359.76 68.9683 359.8 69.1083C359.66 69.1482 359.52 69.188 359.481 69.0481C358.981 68.8879 358.582 68.5479 358.322 68.168C357.823 66.9485 357.564 65.5093 357.405 63.8903C357.399 63.8126 357.392 63.7334 357.385 63.6524L357.385 63.6444V63.6439C357.326 62.9553 357.257 62.1366 357.347 61.0322C357.321 59.9569 357.302 59.0177 357.286 58.2103L357.285 58.1745L357.285 58.1638L357.284 58.1164L357.284 58.0823L357.284 58.0721C357.241 55.9207 357.217 54.7386 357.131 54.4365C356.812 53.3171 356.433 52.5174 356.094 51.8576C354.635 50.4577 353.556 49.8574 352.817 49.9169L350.099 49.9352C349.833 50.0111 349.639 50.1272 349.497 50.2121C349.415 50.2612 349.35 50.2999 349.299 50.3145C349.159 50.3544 349.019 50.3942 348.979 50.2543C348.14 50.4936 346.84 51.772 345.18 53.9095C343.519 56.047 342.339 57.7452 341.639 59.0039L341.359 59.0837C341.334 58.9972 341.348 58.842 341.367 58.6276C341.378 58.495 341.392 58.3399 341.4 58.1643L342.061 55.7064C342.803 51.4097 343.684 48.1325 344.605 46.0544C344.945 45.6549 344.865 45.3751 344.326 45.0749C344.16 44.7869 343.656 44.4557 343.196 44.153C342.826 43.9094 342.484 43.6842 342.368 43.5148C342.026 43.6122 341.446 43.577 340.995 43.5496L340.888 43.5432C340.824 43.5395 340.764 43.5362 340.709 43.5337C340.429 43.6135 340.289 43.6534 340.109 43.5534L339.41 43.7528C338.57 43.9921 337.99 44.6113 337.77 45.4306L337.209 47.7088C336.909 48.2482 336.609 48.7877 336.588 49.2473C336.448 50.3465 336.047 52.1251 335.446 54.2633L334.023 60.4182C333.763 61.0976 333.502 62.8363 333.522 63.4359C333.381 64.535 332.92 66.6334 332.639 67.7724C332.441 68.5681 332.246 69.3427 332.056 70.097C330.965 74.4387 330.043 78.1056 329.513 81.2214C329.133 82.5403 329.132 83.5996 329.271 84.619C329.221 84.7093 329.216 84.8248 329.247 84.9302C328.773 84.8638 328.23 84.9155 327.62 85.0897C327.32 85.1752 327.203 85.2952 327.095 85.4066C327.002 85.5031 326.915 85.5932 326.72 85.6487C325.882 82.7102 325.646 76.5742 326.267 73.9763L326.367 73.7965C326.317 73.1681 326.657 71.2267 327.252 67.8251L327.252 67.8247C327.358 67.2233 327.471 66.5761 327.592 65.8826C328.534 61.2263 329.055 58.8083 329.355 58.2688C328.757 56.1698 325.54 54.9687 323.441 55.567C322.461 55.8462 319.701 59.9617 315.059 68.0933L307.195 82.4388C307.157 79.121 307.739 75.324 308.981 71.1875L310.843 65.5125L312.285 61.0164C312.267 60.9541 312.349 60.7135 312.446 60.4251L312.446 60.4247L312.446 60.4243C312.568 60.0653 312.714 59.6326 312.726 59.3778C312.927 58.8512 312.985 58.4566 313.029 58.1568L313.029 58.1551L313.029 58.1512C313.037 58.0975 313.045 58.0468 313.052 57.999C313.057 57.9714 313.061 57.9448 313.066 57.919C312.628 56.3798 311.569 55.3198 309.83 55.0589C309.571 54.679 306.033 54.477 305.653 54.7366L303.974 55.2152C303.134 55.4545 302.095 56.0535 300.815 56.8721C299.676 57.6508 298.576 58.5693 297.476 59.4879L297.476 59.4883C294.796 61.7651 292.757 63.103 291.257 63.6816L288.061 62.0208C285.803 61.0001 284.304 60.5195 283.604 60.7189L283.325 60.7987L283.245 60.5188C282.446 59.8388 281.207 59.7381 279.388 60.2566C276.169 61.174 274.748 65.2104 275.665 68.4288C276.184 70.2479 277.922 71.5681 280.939 72.0696L280.659 72.1494C280.24 72.269 279.82 72.3887 279.72 72.5685C278 73.9665 275.999 77.5629 273.857 83.3176C271.715 89.0724 271.153 93.4691 272.03 96.5476C272.828 99.3462 274.546 101.126 277.083 102.067C279.621 103.008 281.819 103.289 283.638 102.771C287.277 101.734 290.457 97.4983 293.14 89.9251C295.823 82.3519 296.347 75.6967 294.631 69.6797C294.512 69.2599 294.472 69.1199 294.292 69.0199L294.172 68.6001C294.912 68.011 296.457 67.1925 298.001 66.374C299.546 65.5555 301.09 64.737 301.83 64.1478L302.99 62.9094C303.06 62.8895 303.275 62.7148 303.49 62.5401L303.49 62.5399C303.705 62.3652 303.92 62.1905 303.99 62.1705C300.465 74.2202 299.48 82.9737 300.956 88.1511C301.075 88.5709 301.295 88.8109 301.475 88.9109C302.373 91.5297 305.77 92.8309 307.309 92.3922C308.708 91.9933 309.848 91.2145 310.688 89.9159C312.849 86.8793 315.55 82.0243 318.792 75.3508L319.192 74.6315C319.311 75.0513 319.351 75.1912 319.251 75.371C319.271 75.441 319.276 75.5909 319.281 75.7408C319.286 75.8907 319.291 76.0406 319.311 76.1106L319.248 80.6675C319.367 82.1465 319.666 83.7256 320.184 85.5447C321.301 89.4628 326.197 91.2446 328.296 90.6463C330.815 89.9284 331.835 88.7298 331.356 87.0506C331.256 86.6985 331.127 86.3882 330.972 86.1209C331.952 86.5491 332.873 86.6183 333.707 86.3805C334.827 86.0614 335.607 85.0826 336.227 83.544L337.79 77.3491C338.692 73.6122 339.593 70.9346 340.553 68.9965C340.623 68.8713 340.701 68.7192 340.785 68.5562L340.785 68.5556L340.786 68.5552C341.063 68.0159 341.402 67.3576 341.694 67.1584C342.194 66.2593 344.094 63.9021 347.254 60.1266C347.035 59.8866 349.434 57.6896 350.674 56.731C350.814 56.6911 350.854 56.831 350.894 56.971C350.753 58.0701 350.812 59.869 350.891 62.2674C350.989 64.2061 351.328 65.9252 351.867 67.2846C353.244 70.5233 355.141 72.4032 357.52 72.7844C358.339 73.0047 359.118 73.0852 360.098 72.806C360.509 72.6887 361.364 72.6905 362.025 72.6919H362.026C362.264 72.6924 362.478 72.6928 362.636 72.6876C363.096 72.7079 363.376 72.6281 363.436 72.3084C363.456 71.8487 363.596 71.8088 364.056 71.8291C364.376 71.8892 364.476 71.7094 364.536 71.3897C364.616 70.6102 364.557 69.8707 364.397 69.311C364.158 68.4714 363.339 68.251 361.939 68.6499C361.839 68.8297 361.699 68.8696 361.559 68.9095ZM289.272 74.2333L289.192 73.9534C289.413 73.1341 289.234 71.9748 288.875 70.7154C287.615 71.0744 286.636 71.3536 286.256 71.6132C287.675 71.8139 288.574 72.3141 288.813 73.1537C289.013 73.8534 288.133 75.0121 287.433 75.2115C286.034 75.6104 284.273 78.987 281.97 85.2414C279.668 91.4957 278.886 95.6524 279.484 97.7514L280.123 98.931C282.082 98.3726 284.303 95.0162 286.745 88.722C289.327 82.3878 290.05 77.4916 289.272 74.2333ZM282.201 67.4735C282.957 67.2581 284.245 66.6185 285.276 66.1069C285.963 65.7658 286.535 65.4815 286.759 65.4177C285.701 64.3577 284.562 64.0772 283.582 64.3564C283.377 64.4148 283.194 64.5482 282.961 64.7174C282.876 64.7793 282.784 64.846 282.682 64.9155C282.656 65.0218 282.631 65.1253 282.606 65.2261L282.605 65.2268L282.605 65.2279L282.605 65.2284C282.363 66.2067 282.183 66.9302 282.201 67.4735ZM268.56 83.4658L269.099 83.7659L269.419 83.8261C269.599 83.9261 269.739 83.8862 269.839 83.7064L270.079 83.4867C270.259 83.5868 270.538 83.507 270.599 83.1872C270.789 83.0574 271.009 82.7678 271.229 82.4781C271.449 82.1884 271.669 81.8988 271.859 81.769C272.099 81.5493 272.299 81.1896 272.319 80.73C272.312 80.6388 272.303 80.5272 272.293 80.4004L272.293 80.3993L272.293 80.3983L272.293 80.3972L272.293 80.3962L272.293 80.3951L272.293 80.3941L272.293 80.3929L272.293 80.392C272.223 79.4884 272.096 77.8236 271.921 77.2121C271.902 76.6125 271.742 76.0528 271.443 75.5329C270.565 73.5137 269.046 72.4335 266.888 72.2923C266.388 72.1321 265.649 72.1916 264.809 72.4309L263.69 72.75C260.77 75.2465 258.51 78.463 256.729 82.2993L255.007 85.8158L254.728 85.8956C254.548 85.7956 254.508 85.6556 254.468 85.5157L254.788 84.5166L255.149 82.5981C255.249 82.4183 255.249 82.4183 255.21 82.2784C255.03 82.1783 255.09 81.8586 255.15 81.5388L255.31 81.0392L255.71 80.32C255.651 79.5804 255.992 78.1216 256.632 76.1234C257.233 73.9852 257.834 72.9063 258.353 72.6068C258.533 72.7069 258.873 72.3073 259.173 71.7679C259.313 71.728 259.233 71.4481 259.054 71.3481C258.275 70.2084 257.696 69.7683 257.096 69.7879C256.636 69.7677 256.177 69.7474 255.497 69.4872C255.317 69.3871 255.138 69.2871 254.998 69.327L253.179 69.8455C252.339 70.0848 251.859 70.5242 251.559 71.0637C251.259 71.6031 250.999 72.2825 250.878 72.922L249.876 76.8387L248.835 80.6155L248.915 80.8954L248.554 82.8139C248.573 83.4135 248.233 84.8723 247.972 85.5517L247.15 89.5685C245.527 97.1423 245.104 102.558 245.741 105.857C246.06 106.976 246.4 107.636 246.72 107.696C246.919 108.396 247.358 108.876 247.998 108.996C248.537 109.296 249.317 109.376 250.156 109.137L250.576 109.017C250.856 108.938 250.996 108.898 251.176 108.998L251.596 108.878C252.683 107.215 252.227 106.421 251.935 105.912C251.803 105.681 251.704 105.509 251.798 105.341L253.2 100.705C253.523 99.8314 253.8 99.0432 254.043 98.3484C254.508 97.0243 254.853 96.0391 255.181 95.4494C255.482 94.91 256.242 93.3315 257.183 90.7938C257.253 90.7739 257.278 90.7289 257.303 90.684C257.328 90.639 257.353 90.5941 257.423 90.5741C257.745 90.1218 258.138 89.1659 258.488 88.3149L258.488 88.313L258.488 88.3127C258.725 87.7361 258.942 87.208 259.104 86.9176C259.22 86.7094 259.363 86.3582 259.52 85.9722C259.769 85.3581 260.055 84.6559 260.325 84.3001L263.126 79.2653C263.426 78.7258 265.286 77.2879 265.466 77.388C266.185 77.7882 266.624 78.2681 266.744 78.6879L266.824 78.9678C267.043 80.267 267.322 81.2465 267.661 81.9063C267.841 82.0063 267.881 82.1463 267.921 82.2862C267.821 82.466 268.08 82.8459 268.56 83.4658ZM219.632 97.8665L219.093 97.5664C218.613 96.9465 218.354 96.5666 218.454 96.3868C218.414 96.2468 218.374 96.1069 218.194 96.0069C217.855 95.3471 217.576 94.3676 217.356 93.0683L217.277 92.7885C217.157 92.3687 216.718 91.8887 215.998 91.4886C215.819 91.3885 213.959 92.8264 213.659 93.3659L210.858 98.4007C210.587 98.7564 210.302 99.4585 210.052 100.073L210.052 100.073L210.052 100.073C209.895 100.459 209.753 100.81 209.637 101.018C209.475 101.309 209.258 101.837 209.021 102.413L209.021 102.414C208.671 103.265 208.278 104.222 207.956 104.675C207.886 104.695 207.861 104.74 207.836 104.785C207.811 104.83 207.786 104.874 207.716 104.894C206.775 107.432 206.014 109.011 205.714 109.55C205.386 110.14 205.041 111.125 204.576 112.449C204.332 113.144 204.056 113.932 203.732 114.805L202.33 119.441C202.237 119.61 202.336 119.782 202.468 120.013C202.76 120.522 203.216 121.315 202.128 122.979L201.708 123.098C201.529 122.998 201.389 123.038 201.109 123.118L200.689 123.238C199.849 123.477 199.07 123.397 198.531 123.096C197.891 122.976 197.452 122.496 197.252 121.797C196.933 121.736 196.593 121.077 196.274 119.957C195.911 118.081 195.892 115.52 196.241 112.266C195.234 113.953 194.454 115.556 193.819 117.026L191.719 119.743C190.398 121.481 189.578 122.32 189.338 122.54C189.158 123.499 188.238 124.518 186.818 125.376C186.438 125.636 186.238 125.995 186.138 126.175L185.859 126.255C185.719 126.295 185.719 126.295 185.619 126.475C185.518 126.654 185.418 126.834 185.279 126.874C184.058 128.432 180.499 130.809 178.4 131.407C174.063 132.643 170.106 131.502 166.85 128.042C165.632 126.422 164.813 125.143 164.614 124.443C163.657 121.085 163.498 118.406 164.239 116.228C164.339 116.049 164.439 115.869 164.46 115.409L164.42 115.269C164.477 115.166 164.502 115.122 164.505 115.076C164.507 115.043 164.497 115.009 164.48 114.949L164.58 114.77C164.54 114.63 164.5 114.49 164.64 114.45C168.785 101.921 174.126 94.649 180.843 92.7345C183.501 91.9766 188.617 92.9391 189.854 97.277C190.133 98.2565 190.092 99.1758 189.732 100.035C189.772 100.175 189.512 100.854 189.412 101.034C189.212 101.394 189.151 101.714 189.231 101.993L188.831 102.713L188.631 103.072L188.531 103.252L188.571 103.392C187.71 106.21 185.869 109.306 183.329 112.603C180.788 115.899 178.169 117.856 175.65 118.574C175.47 118.474 175.051 118.593 174.631 118.713L172.832 118.772C170.677 118.081 170.693 119.474 170.711 121.139C170.714 121.405 170.717 121.677 170.711 121.948L170.611 122.128C170.411 122.488 170.471 123.227 170.83 124.487C170.949 124.907 171.069 125.326 171.289 125.566L171.329 125.706C171.456 125.777 171.513 125.868 171.627 126.049C171.675 126.124 171.732 126.215 171.808 126.326L171.848 126.466C172.078 126.476 172.347 126.626 172.617 126.776C172.887 126.926 173.157 127.077 173.386 127.087C173.746 127.287 174.346 127.267 175.045 127.068C176.025 126.789 176.785 126.269 177.644 125.57C177.845 125.211 178.085 124.991 178.224 124.951C179.364 124.172 181.244 122.275 183.684 119.158C185.005 117.42 187.065 114.564 189.726 110.628C193.372 105.279 196.288 101.673 198.473 99.8092L198.505 99.6523C198.765 98.9729 199.106 97.5141 199.086 96.9145L199.447 94.996L199.368 94.7161L200.409 90.9393L201.411 87.0226C201.531 86.3831 201.792 85.7037 202.092 85.1642C202.392 84.6248 202.872 84.1854 203.711 83.9461L205.53 83.4275C205.67 83.3877 205.85 83.4877 206.03 83.5877C206.709 83.848 207.169 83.8683 207.629 83.8885C208.228 83.8689 208.808 84.309 209.586 85.4487C209.766 85.5487 209.846 85.8286 209.706 85.8685C209.406 86.4079 209.066 86.8074 208.886 86.7074C208.366 87.0069 207.766 88.0858 207.165 90.224C206.524 92.2222 206.184 93.681 206.243 94.4206L205.843 95.1398L205.683 95.6394C205.623 95.9591 205.562 96.2789 205.742 96.3789C205.782 96.5189 205.782 96.5189 205.682 96.6987L205.321 98.6172L205.001 99.6163C205.041 99.7562 205.081 99.8961 205.26 99.9962L205.54 99.9164L207.261 96.3999C209.042 92.5635 211.303 89.3471 214.222 86.8506L215.342 86.5315C216.181 86.2922 216.921 86.2327 217.421 86.3929C219.579 86.5341 221.097 87.6143 221.975 89.6335C222.275 90.1533 222.434 90.7131 222.454 91.3127C222.629 91.9261 222.757 93.5997 222.826 94.5012C222.836 94.628 222.844 94.7394 222.852 94.8305C222.831 95.2902 222.631 95.6499 222.391 95.8696C222.201 95.9994 221.981 96.289 221.761 96.5787L221.761 96.5788C221.541 96.8685 221.321 97.1581 221.131 97.2878C221.071 97.6076 220.791 97.6873 220.611 97.5873L220.372 97.807C220.271 97.9868 220.132 98.0267 219.952 97.9267L219.632 97.8665ZM178.895 107.663C176.234 111.599 174.014 113.896 172.475 114.335C172.335 114.375 172.295 114.235 172.255 114.095C172.956 111.777 174.757 108.54 177.378 104.464C179.998 100.389 182.078 98.1316 183.338 97.7726L183.478 97.7327C183.136 100.251 181.655 103.548 178.895 107.663ZM113.191 122.011C112.937 122.279 112.703 122.599 112.504 122.957C111.784 123.616 111.104 124.415 110.603 125.314C110.441 125.528 110.186 125.994 109.888 126.54C109.378 127.474 108.74 128.64 108.223 129.17L105.622 132.786C104.482 134.624 103.882 135.703 103.821 136.023L101.861 138.7C99.6006 141.916 97.6606 144.133 96.1207 145.631C96.0206 145.811 95.661 145.611 95.6211 145.471C95.3615 145.091 95.2223 144.072 95.0235 142.313L94.8646 140.694C95.4093 132.52 96.392 126.944 97.8129 123.967C98.0529 123.747 98.1529 123.567 98.0732 123.288C97.794 122.308 97.3748 121.368 96.7556 120.788C95.9768 119.649 94.7979 119.228 92.9788 119.747C92.7549 119.811 92.6302 119.798 92.4805 119.782C92.2561 119.759 91.9755 119.73 91.2198 119.946C90.7 120.245 90.4999 120.605 90.6595 121.164C90.6392 121.624 90.5392 121.804 90.1194 121.924C90.0599 121.941 90.0257 121.95 89.9922 121.948C89.947 121.945 89.903 121.921 89.7996 121.863L87.1612 122.162C82.5036 123.338 78.2044 126.833 74.2236 132.507C70.2029 138.04 67.9411 143.375 67.2186 148.272C67.078 149.371 67.2571 150.53 68.1157 151.95C68.1915 152.216 68.5807 152.514 68.8656 152.733L68.8657 152.733L68.8661 152.733C69.0303 152.859 69.1597 152.958 69.1743 153.01C70.4723 154.909 73.8495 155.611 76.2284 154.933C79.7266 153.936 83.7264 149.921 88.1878 142.748L88.6665 144.427C89.8232 148.485 94.7776 152.066 98.6957 150.949C100.095 150.55 101.715 149.332 103.655 147.115C105.467 144.64 107.911 141.21 110.878 136.855C110.721 137.982 110.486 139.269 110.186 140.714C110.226 140.854 110.166 141.174 110.066 141.353C110.046 141.813 110.126 142.093 110.165 142.233C110.204 144.491 110.223 146.15 110.082 147.249C110.088 147.41 110.09 147.561 110.092 147.7C110.098 148.082 110.103 148.384 110.162 148.589C110.279 148.999 110.36 149.659 110.447 150.357C110.566 151.323 110.695 152.36 110.938 152.906C111.218 153.886 111.377 154.445 111.357 154.905C111.381 154.991 111.505 155.223 111.676 155.543C111.782 155.741 111.906 155.972 112.036 156.225C112.155 156.644 112.295 156.604 112.495 156.245C112.545 156.155 112.57 156.11 112.605 156.1C112.64 156.09 112.685 156.115 112.775 156.165C112.815 156.305 112.855 156.445 112.715 156.485C112.709 156.619 112.696 156.73 112.686 156.822C112.66 157.043 112.647 157.154 112.774 157.224L114.093 158.664C114.276 158.932 114.875 159.081 115.277 159.18L115.277 159.18L115.277 159.18L115.278 159.181C115.446 159.222 115.578 159.255 115.631 159.285L115.911 159.205L116.011 159.025C116.206 158.97 116.495 159.017 116.806 159.069C117.164 159.128 117.55 159.192 117.85 159.106L118.27 158.987C118.549 158.907 118.61 158.587 118.49 158.167L118.291 157.468C118.141 157.208 117.966 156.728 117.792 156.248C117.617 155.768 117.442 155.288 117.293 155.029C117.113 154.929 117.033 154.649 117.093 154.329L116.856 150.311C116.921 149.682 116.908 148.777 116.89 147.578L116.884 147.106C116.882 146.966 116.88 146.822 116.878 146.674C117.264 136.881 119.69 124.691 123.916 110.323L124.216 109.783C124.236 109.324 124.536 108.784 125.196 108.445C126.703 107.367 129.031 106.056 132.042 104.36L132.043 104.359L132.047 104.357L132.064 104.347C132.562 104.067 133.079 103.776 133.614 103.473L137.012 101.597L135.21 108.011C134.93 109.001 134.659 109.958 134.397 110.884L134.389 110.911C132.606 117.207 131.238 122.039 130.522 125.537C128.719 133.01 127.816 138.866 127.633 143.003C127.672 144.202 127.692 144.802 127.732 144.942C127.871 145.961 128.25 146.761 128.91 147.481C129.968 148.541 131.707 148.802 134.086 148.124C134.645 147.964 135.085 147.385 135.446 146.526L136.226 144.487C136.247 144.028 136.667 142.849 136.967 142.309C136.979 142.035 137.32 141.397 137.647 140.782L137.648 140.782C137.868 140.368 138.083 139.965 138.188 139.692C138.198 139.462 138.373 139.147 138.548 138.833L138.548 138.833C138.723 138.518 138.899 138.203 138.909 137.973L140.21 134.577C140.34 134.237 140.665 133.652 140.99 133.068C141.315 132.484 141.641 131.899 141.771 131.56L143.372 127.623C143.384 127.348 143.69 126.772 143.99 126.209L143.99 126.209C144.19 125.831 144.388 125.458 144.493 125.186C144.646 124.563 145.17 123.654 145.682 122.766C146.106 122.028 146.523 121.305 146.714 120.77L148.215 118.073C148.715 117.174 148.875 116.674 148.935 116.354L149.175 116.135L149.735 115.975C149.875 115.935 150.015 115.895 150.195 115.995L150.314 116.415C150.33 116.615 150.342 116.839 150.355 117.084V117.085C150.39 117.746 150.432 118.566 150.592 119.513L150.83 123.531C150.849 125.189 151.387 127.608 152.724 130.707C154.061 133.806 155.499 135.665 157.117 136.566C158.736 137.466 160.474 137.727 162.014 137.288C163.273 136.929 163.993 136.27 164.213 135.451C164.413 135.091 164.434 134.631 164.234 133.932C164.114 133.512 164.075 133.372 164.175 133.192C164.235 132.873 164.155 132.593 163.795 132.393C163.076 131.992 162.437 131.872 161.737 132.072C161.637 132.251 161.497 132.291 161.357 132.331L160.517 132.57C160.277 132.79 160.138 132.83 160.058 132.55C157.083 126.892 156.208 119.577 156.41 116.039C156.712 113.381 156.654 110.523 156.236 107.465C156.117 105.986 155.338 104.846 154.039 104.006C153.628 103.777 152.911 103.685 152.244 103.6C151.744 103.536 151.273 103.476 150.982 103.364L149.562 104.223C147.342 106.52 145.822 108.618 144.862 110.556C144.521 112.014 143.721 113.453 142.74 114.791C142 115.91 141.1 117.529 139.939 119.826C138.879 121.944 138.258 123.483 138.038 124.302C137.938 124.482 137.838 124.662 137.698 124.702C137.648 124.792 137.623 124.836 137.588 124.846C137.553 124.856 137.508 124.831 137.418 124.781L137.338 124.502C137.698 123.642 138.359 121.184 138.64 120.045C138.66 119.586 138.901 118.307 139.161 117.627L139.161 117.627C139.482 116.628 139.802 115.629 139.942 114.53C140.784 111.113 141.485 108.795 142.005 107.436C142.255 106.736 142.597 105.423 142.854 104.435C143.03 103.758 143.167 103.233 143.207 103.16C143.635 102.099 143.958 100.925 144.295 99.7027L144.295 99.7026L144.295 99.7023L144.295 99.7021L144.295 99.7015L144.295 99.701L144.295 99.7005C144.447 99.1495 144.601 98.5887 144.769 98.024C150.408 94.4499 154.567 90.9948 157.207 87.5188C158.588 85.461 161.309 80.1463 161.77 78.048C162.733 72.932 162.295 69.2742 160.278 66.9745C158.7 65.1548 156.562 64.5539 153.903 65.3117C150.125 66.3886 147.065 69.9843 145.003 76.019C144.623 76.2786 144.423 76.6382 144.303 77.2777L143.662 79.276L143.481 80.2352C142.861 81.7738 142.48 83.0927 142.26 83.912C141.999 85.6506 141.398 87.7888 140.457 90.3265L139.015 94.8226L137.976 95.4216L136.156 95.9401C135.836 96.0314 135.201 96.2441 134.513 96.4746L134.513 96.4748L134.512 96.475L134.509 96.4762C133.695 96.7486 132.808 97.0458 132.278 97.1968C131.149 97.7006 130.28 98.0088 129.617 98.2436C128.627 98.5948 128.1 98.7817 127.86 99.2128C127.48 99.4724 126.941 99.1722 127.041 98.9924C126.961 98.7125 128.643 92.9375 128.944 92.398L129.705 89.7603L131.367 84.4449L132.829 79.4891C132.979 79.2194 133.164 78.6749 133.349 78.1303L133.349 78.13C133.535 77.5856 133.72 77.0413 133.87 76.7716C134.05 76.8717 134.33 76.7919 134.749 76.6722C135.309 76.5127 135.649 76.1131 135.669 75.6535C135.69 75.1938 136.25 73.975 136.35 73.7952C136.871 72.4364 136.931 71.0574 136.393 69.6979C136.134 68.2587 134.795 67.2786 132.617 66.5377C131.338 66.2971 130.419 66.2566 129.999 66.3762C129.299 66.5757 129.039 67.255 128.898 68.3542C128.798 68.534 128.698 68.7139 128.678 69.1735L127.517 72.5306C126.755 76.2276 125.774 79.6846 124.572 82.9017L123.07 87.7176C122.81 88.3969 122.369 90.0356 122.389 90.6352C120.807 95.1711 119.466 99.4874 118.504 103.544C118.243 104.223 118.043 104.583 117.624 104.703C117.424 104.966 117.068 105.117 116.715 105.268C116.289 105.449 115.866 105.629 115.724 106.001C115.076 106.266 113.931 106.886 112.839 107.478L112.839 107.478C111.875 108 110.952 108.5 110.446 108.716C109.266 109.354 107.487 110.013 105.248 110.651C104.129 110.97 103.049 111.429 102.15 111.988L100.75 112.387L100.681 112.396L100.602 112.407L100.598 112.408C99.5049 112.553 97.279 112.849 98.2308 114.164C99.8282 116.584 102.366 117.525 105.764 116.707L105.764 116.707L105.765 116.707C107.583 116.189 108.983 115.79 110.002 115.651C110.268 115.575 110.518 115.443 110.701 115.346C110.807 115.29 110.89 115.246 110.942 115.232C111.556 115.056 112.449 114.721 113.582 114.295C113.997 114.139 114.443 113.971 114.92 113.795C115.279 113.995 115.459 114.095 115.359 114.275C115.259 114.455 115.159 114.635 115.199 114.774C114.593 116.177 113.942 118.584 113.191 122.011ZM149.137 83.3806L149.137 83.3809L149.137 83.3814C148.934 84.1253 148.726 84.8864 148.555 85.2949L147.673 88.5722C150.533 86.3954 152.212 84.8575 152.713 83.9584C156.534 77.725 158.056 73.5087 157.037 71.5294C156.738 71.0096 156.378 70.8095 155.819 70.9691C154.799 71.1084 153.619 72.8065 152.058 75.8235C150.637 78.8006 149.817 80.6988 149.736 81.4782C149.579 81.761 149.361 82.5602 149.137 83.3803L149.137 83.3806ZM74.5926 149.858C74.5026 149.94 74.4426 149.995 74.3727 150.015C73.9529 150.135 73.773 150.035 73.7933 149.575C74.2144 147.337 75.5555 144.08 77.5767 140.024C79.6978 135.788 81.4182 133.331 82.6978 132.512L82.8979 132.152L82.9954 132.03C83.7154 131.125 84.1376 130.595 84.5777 130.614C84.838 129.935 85.9378 129.016 86.3177 128.757C86.3543 128.691 86.5088 128.612 86.7046 128.511C87.0438 128.338 87.5071 128.1 87.6974 127.758C87.8373 127.718 88.0172 127.818 88.197 127.918L88.3166 128.338C87.8766 128.917 87.2763 129.996 86.476 131.435C84.1946 136.17 82.3938 139.407 81.1736 140.965C80.7735 141.684 79.8731 143.303 79.433 143.882C78.371 145.215 77.5685 146.255 76.9955 146.998L76.995 146.999L76.9947 146.999C76.3057 147.893 75.9491 148.355 75.8727 148.377L74.9925 149.536C74.8026 149.665 74.6826 149.775 74.5926 149.858ZM30.5399 93.2138L33.98 89.3585C36.3202 86.4219 38.8396 84.6447 41.6382 83.847C47.6552 82.1318 54.8682 85.6739 57.5628 91.4117C57.8623 91.9315 58.0016 92.9509 57.9407 94.3299C57.7969 100.726 56.5951 105.002 54.5151 107.259C54.3395 107.251 54.1843 107.238 54.0518 107.226C53.8374 107.207 53.6822 107.194 53.5957 107.219C53.5491 107.232 53.4337 107.298 53.2797 107.387L53.2795 107.387C52.9715 107.565 52.5094 107.831 52.1363 107.937C51.888 107.799 51.5325 107.728 51.1487 107.65C50.4208 107.504 49.5912 107.337 49.199 106.656L48.6197 106.216C48.2601 106.016 48.1803 105.736 48.3405 105.237C50.0412 102.18 50.8435 97.5634 50.7873 91.5274C50.9279 90.4282 50.3688 89.5285 49.3501 88.6085C48.8106 88.3084 48.451 88.1083 48.3111 88.1482C47.3316 88.4274 46.252 88.8864 45.2123 89.4854C45.1505 89.5965 44.9283 89.7533 44.6213 89.9701C44.4315 90.104 44.2093 90.2609 43.9726 90.4439C42.6929 91.2626 41.873 92.1015 41.5728 92.641C41.4728 92.8208 41.3727 93.0006 40.9928 93.2602C40.0532 93.6793 38.1132 95.8967 35.1727 99.9121L34.7121 100.566L34.712 100.566C32.1348 104.223 30.1394 107.054 28.9111 109.262L28.711 109.622C28.6691 109.845 28.5397 110.019 28.4313 110.165L28.4313 110.165C28.3842 110.228 28.3411 110.286 28.3108 110.341C28.219 110.581 27.9526 111.002 27.6358 111.504C27.0553 112.423 26.3054 113.609 26.1498 114.437C25.8895 115.116 25.5894 115.656 25.1493 116.235C23.9089 118.253 22.5881 121.05 21.0469 124.667C20.5663 126.165 19.9458 127.704 19.1853 129.282L17.3237 133.898C17.0236 134.438 16.303 136.156 15.4419 138.974C12.0188 147.666 9.81522 155.859 9.07111 163.333L8.48916 167.13C7.86667 171.847 7.94383 176.364 8.82068 180.501C8.71998 181.741 9.91855 182.761 10.1984 182.681C10.7904 182.512 10.9443 182.358 11.0662 182.236C11.1459 182.156 11.2119 182.089 11.378 182.042L11.6978 182.102C14.0367 181.284 16.3763 179.407 18.8165 176.29C19.2717 175.92 19.9793 175.097 20.6869 174.273C21.3158 173.541 21.9448 172.809 22.3965 172.395C22.5659 172.28 22.7911 171.937 23.0348 171.567C23.3375 171.107 23.6687 170.604 23.9567 170.438C24.1278 170.212 24.3836 169.803 24.6664 169.35C25.1111 168.638 25.6227 167.819 25.9772 167.441C26.3528 167.04 26.653 166.597 26.9375 166.177L26.9376 166.177C27.0923 165.949 27.2424 165.727 27.3974 165.523C32.9783 158.032 36.0789 153.517 36.8996 151.618L37.8797 150.28C38.0197 150.24 38.1596 150.2 38.2596 150.02C38.4522 149.238 38.9931 148.429 39.4752 147.707C39.6955 147.377 39.9035 147.066 40.0604 146.784L45.5622 137.953L46.4024 136.654C46.6424 136.435 46.5626 136.155 46.1029 136.134C45.6347 136.15 44.5574 135.97 42.8233 135.68C42.3366 135.599 41.798 135.509 41.2067 135.412C39.8479 134.891 38.869 134.111 38.31 133.212C38.2701 133.072 38.2701 133.072 38.0903 132.972C38.0004 132.922 37.9554 132.897 37.9454 132.862C37.9355 132.827 37.9605 132.782 38.0105 132.692C38.1707 132.192 38.6507 131.753 39.3503 131.553C39.91 131.394 40.8294 131.434 42.2084 131.495C43.1278 131.536 44.0072 131.436 44.7069 131.237C45.4065 131.037 45.8263 130.918 46.0663 130.698C46.1663 130.518 46.4462 130.438 46.7261 130.359C46.9059 130.459 47.0458 130.419 47.1857 130.379C47.5355 130.279 47.9603 130.045 48.3851 129.81L48.3853 129.81L48.3855 129.81C48.8103 129.575 49.2351 129.341 49.5848 129.241C50.8043 128.742 52.1441 127.604 53.3845 125.586C58.8869 115.696 62.3446 115.618 66.3196 119.478C66.7191 119.818 66.9388 120.058 66.8388 120.238C66.8983 120.978 67.5776 121.238 68.6768 121.378C68.7234 121.365 68.8254 121.37 68.9445 121.375H68.9446H68.9447H68.9448C69.1831 121.385 69.4896 121.399 69.5563 121.279C74.3139 119.923 77.0523 119.445 77.6317 119.885C77.7077 119.996 77.7769 120.083 77.8342 120.156C77.9726 120.33 78.0418 120.417 77.971 120.545C77.9109 120.864 76.6313 121.683 74.1321 123.001C71.7729 124.278 70.4933 125.097 70.2533 125.317C70.1776 125.338 69.8088 125.576 69.404 125.838L69.4034 125.838L69.403 125.838C69.0603 126.06 68.692 126.298 68.4538 126.435C68.3139 126.475 67.4142 127.034 67.0343 127.293C67.0009 127.353 66.7899 127.497 66.5225 127.68L66.5224 127.68C65.9877 128.046 65.228 128.565 65.2145 128.871C64.8297 130.683 64.4364 132.233 64.1156 133.496C63.9517 134.142 63.8068 134.713 63.6916 135.206L61.1879 143.938L55.2991 164.681L53.8965 170.376C53.6755 172.255 53.5349 173.354 53.4349 173.534C53.295 173.574 53.3348 173.714 53.5147 173.814C55.0519 176.553 55.2703 178.911 54.0299 180.929C53.8298 181.289 53.4499 181.548 53.0301 181.668C52.7503 181.748 52.4704 181.828 52.2906 181.728C52.1558 181.732 52.0069 181.74 51.8429 181.75C51.2775 181.782 50.533 181.824 49.5724 181.746C48.893 181.486 47.0949 180.485 46.7555 179.825C46.4959 179.445 46.2363 179.066 46.3364 178.886C46.0774 177.447 46.0781 176.387 46.1585 175.608L47.6814 169.273C47.7502 168.993 47.8613 168.574 47.9935 168.075L47.994 168.073L47.9947 168.071L47.995 168.07L47.9951 168.069L47.9951 168.069C48.4018 166.535 49.0077 164.249 49.2043 162.938C50.9874 155.924 52.73 149.829 54.4719 144.794C54.6383 144.397 54.7665 143.753 54.8957 143.104C55.0462 142.347 55.1982 141.584 55.4135 141.197L56.2949 137.92C56.4979 137.436 56.7327 136.559 56.9457 135.763C57.1108 135.147 57.2628 134.579 57.3765 134.283C57.4765 134.103 57.4569 133.503 57.0371 133.623C53.9357 139.197 51.655 142.873 49.915 144.731L49.2147 145.99C48.5144 147.248 47.8141 148.507 46.834 149.846L45.9336 151.464L44.2531 154.061L42.7727 156.299C42.6659 156.464 42.5559 156.635 42.4422 156.811L42.4374 156.819C41.6579 158.029 40.709 159.503 39.4719 161.173C39.2079 161.648 38.6487 162.417 38.1206 163.144L38.1203 163.144C37.6479 163.794 37.2003 164.41 37.0114 164.75L33.5707 169.664C32.6419 170.755 31.9452 171.78 31.3447 172.664L31.3446 172.664L31.1703 172.92C29.5899 175.338 28.2697 177.076 27.2699 177.815L25.8098 179.593C22.2298 183.488 18.8107 185.824 15.7322 186.702C10.9746 188.058 7.27753 187.296 4.50115 184.456C3.18293 183.016 2.32439 181.597 2.10534 180.297L1.70647 178.898C1.12779 177.399 0.729571 174.94 0.871462 171.723C0.65568 165.127 1.75943 157.852 3.86296 149.839C6.10641 141.786 8.28906 135.112 10.4907 130.097C10.9659 129.07 11.4709 127.974 12.0082 126.806L12.0082 126.806C14.1182 122.223 16.727 116.556 19.9968 109.836C21.2777 106.899 22.6182 104.701 23.7984 103.003C25.1788 100.945 26.2191 99.287 26.9194 98.0283C27.7175 97.2312 29.117 95.2332 29.9475 94.0474C30.22 93.6585 30.4312 93.3569 30.5399 93.2138ZM574.746 98.6564C575.205 99.7359 578.782 100.078 580.321 99.6391C580.391 99.6193 580.485 99.5549 580.627 99.4584L580.628 99.4572L580.629 99.4569C580.771 99.3596 580.961 99.2298 581.221 99.0801C581.901 98.281 582.021 97.6415 581.402 97.0615C581.24 96.8242 581.172 96.0875 581.114 95.4658V95.4651C581.08 95.092 581.049 94.7604 581.004 94.603C579.466 92.9231 577.928 92.3026 576.388 92.7414C576.108 92.8211 575.449 93.1605 574.409 93.7595L573.709 93.9589C573.569 93.9988 573.429 94.0387 573.329 94.2185L573.209 94.858L573.369 95.4177C573.108 96.0971 573.228 96.5169 573.628 96.8569L574.746 98.6564ZM597.98 94.511C598.123 94.4137 598.312 94.2839 598.572 94.1341C599.253 93.3351 599.373 92.6956 598.754 92.1156C598.591 91.8783 598.523 91.1417 598.465 90.5199V90.5193C598.431 90.1461 598.4 89.8144 598.355 89.657C596.817 87.9772 595.279 87.3567 593.74 87.7954C593.32 87.9151 592.66 88.2544 591.9 88.7736L591.061 89.0129C590.921 89.0528 590.781 89.0927 590.681 89.2725C590.581 89.4523 590.481 89.6322 590.56 89.912L590.72 90.4717C590.46 91.1511 590.579 91.5709 590.979 91.9109L592.237 93.6705C592.696 94.7501 596.133 95.1319 597.673 94.6932C597.743 94.6732 597.838 94.6084 597.98 94.511ZM607.912 84.9661L608.071 85.5258C607.811 86.2052 607.931 86.625 608.33 86.965L609.588 88.7246C609.928 89.3843 611.247 89.7649 613.545 89.8662L615.024 89.7472C615.094 89.7273 615.189 89.6624 615.331 89.5651C615.474 89.4677 615.664 89.3379 615.924 89.1882C616.644 88.5291 616.724 87.7496 616.105 87.1696C615.975 86.9797 615.94 86.46 615.906 85.9404C615.871 85.4207 615.837 84.901 615.707 84.7111C614.169 83.0312 612.63 82.4107 611.231 82.8096C610.671 82.9691 610.011 83.3085 609.252 83.8277L608.412 84.067C608.272 84.1069 608.132 84.1468 608.032 84.3266C607.932 84.5064 607.832 84.6862 607.912 84.9661ZM559.23 79.6279C559.029 79.9875 558.969 80.3073 559.049 80.5871L558.649 81.3064L558.449 81.666L558.349 81.8459L558.389 81.9858C557.528 84.8034 555.687 87.9001 553.147 91.1963C550.606 94.4925 547.987 96.4496 545.468 97.1676C545.288 97.0675 544.868 97.1872 544.449 97.3068L542.65 97.3657C540.495 96.6747 540.51 98.0673 540.529 99.733C540.532 99.9983 540.535 100.27 540.529 100.542L540.429 100.722C540.229 101.082 540.289 101.821 540.648 103.081C540.767 103.5 540.887 103.92 541.107 104.16L541.147 104.3C541.274 104.371 541.331 104.462 541.445 104.643C541.493 104.718 541.55 104.809 541.626 104.92L541.666 105.06C541.896 105.07 542.165 105.22 542.435 105.37C542.705 105.52 542.974 105.67 543.204 105.68C543.564 105.881 544.164 105.861 544.863 105.661C545.843 105.382 546.603 104.863 547.462 104.164C547.662 103.804 547.902 103.585 548.042 103.545C549.182 102.766 551.062 100.869 553.502 97.7521C554.822 96.0141 556.883 93.1573 559.543 89.2216C564.665 81.7098 568.345 77.6349 570.583 76.9967C571.283 76.7972 571.683 77.1373 571.882 77.8369C572.161 78.8164 571.239 83.013 570.839 83.7323C569.999 85.0309 567.778 88.3873 566.998 89.3661C565.518 91.6037 564.457 93.7216 563.637 95.6198L561.536 98.3367C560.216 100.075 559.396 100.914 559.156 101.133C558.976 102.093 558.056 103.111 556.636 103.97C556.256 104.229 556.056 104.589 555.956 104.769L555.676 104.849C555.536 104.889 555.536 104.889 555.436 105.068C555.336 105.248 555.236 105.428 555.096 105.468C553.876 107.026 550.317 109.402 548.218 110.001C543.88 111.237 539.924 110.095 536.668 106.636C536.03 105.787 535.502 105.032 535.114 104.405C535.028 104.567 534.941 104.726 534.854 104.883C533.672 108.7 529.812 113.734 526.873 114.572C525.334 115.011 523.416 114.65 520.878 113.709C518.34 112.768 516.882 111.368 516.303 109.869C515.426 106.79 515.108 103.552 515.53 100.255L516.074 93.1397C516.004 93.1596 515.969 93.1696 515.956 93.1921C515.95 93.2039 515.949 93.2193 515.954 93.2415C515.957 93.2613 515.964 93.2865 515.974 93.3195L515.734 93.5392L515.234 94.4383C514.654 95.0575 514.013 95.9965 513.213 97.435L511.333 100.392L511.212 100.56L511.152 100.645L511.152 100.645L511.151 100.646C510.695 101.283 510.334 101.788 510.192 102.23L509.692 103.129C509.252 103.708 508.952 104.248 508.692 104.927L507.171 108.084L506.91 108.763L505.009 113.239C504.896 113.555 504.788 113.848 504.687 114.12C504.413 114.863 504.196 115.449 504.108 115.917C503.567 117.735 502.907 119.134 502.227 119.933C502.127 120.113 502.027 120.293 501.887 120.333C501.787 120.512 501.507 120.592 501.187 120.532C500.268 120.491 499.448 120.271 498.769 120.011L498.05 119.611C496.611 118.81 495.852 118.27 495.632 118.03C495.411 117.907 495.394 117.496 495.377 117.068C495.366 116.8 495.355 116.526 495.294 116.311C495.514 115.492 496.197 110.456 496.157 110.316C497.4 104.061 497.763 98.9644 497.105 95.0667C496.525 95.6859 495.885 96.6248 495.465 97.8038L494.224 99.8217L493.324 101.44C493.245 101.462 493.236 101.561 493.225 101.674C493.217 101.763 493.208 101.861 493.164 101.94L492.003 104.237C491.983 104.697 491.483 105.596 491.183 106.135L491.183 106.136C490.882 106.675 490.422 107.714 490.042 109.033L489.841 109.392C489.462 109.652 489.301 110.152 489.221 110.931C489.001 111.75 488.58 112.929 487.92 114.328C487.82 114.508 487.66 115.007 487.699 115.147L486.538 118.504L485.277 122.041L484.796 123.54C484.176 125.078 483.975 126.497 483.834 127.597C483.795 127.698 483.759 127.795 483.724 127.888L483.724 127.889L483.724 127.889C483.524 128.419 483.378 128.808 483.174 128.995C483.074 129.175 482.934 129.215 482.794 129.255C480.396 129.333 476.459 127.732 475.861 125.633C475.626 124.722 475.48 123.667 475.423 122.467C473.223 126.106 471.308 128.527 469.631 129.981C469.479 130.12 469.237 130.377 468.966 130.666C468.382 131.286 467.658 132.056 467.371 132.138C467.092 132.218 466.952 132.257 466.772 132.157C466.477 132.289 466.21 132.413 465.969 132.524L465.968 132.524C465.441 132.768 465.041 132.953 464.753 133.036C461.114 134.073 457.977 133.151 455.441 130.092C454.482 128.852 453.943 127.493 453.784 125.874C453.247 122.396 454.03 117.18 456.133 110.226L457.976 102.892L458.456 101.393C458.556 101.213 458.936 100.954 459.356 100.834C460.895 100.395 462.314 100.596 463.473 101.476L465.291 103.076C465.87 103.516 465.89 104.116 465.529 104.975C465.149 106.294 465.068 107.073 465.148 107.353L465.088 107.673C464.588 108.572 464.167 109.751 463.967 111.17C463.946 111.629 463.746 111.989 463.646 112.169C462.946 113.428 462.325 116.026 461.643 120.002C460.961 123.979 460.799 126.597 461.018 127.897C461.218 128.596 461.538 128.657 461.638 128.477L461.878 128.257C462.247 128.152 462.555 127.684 462.846 127.243C463.107 126.848 463.353 126.475 463.617 126.399C463.993 126.127 464.327 125.946 464.606 125.795C465.35 125.39 465.697 125.202 465.378 124.082C466.198 123.243 468.358 120.206 471.759 115.152L475.2 110.237C476.152 108.917 476.903 107.913 477.464 107.206C478.503 102.829 479.934 97.8198 481.758 92.1791L484.34 85.845C484.56 85.0257 485 84.4463 485.42 84.3267C487.099 83.848 489.018 84.209 491.355 85.5095C491.403 85.5622 491.45 85.6081 491.491 85.6495C491.64 85.7972 491.733 85.889 491.655 86.0294C490.954 87.2881 490.434 88.6469 489.853 90.3254L489.593 91.0047L488.652 93.5425C488.552 93.7223 488.492 94.042 488.532 94.182L488.432 94.3618C488.472 94.5017 488.511 94.6416 488.372 94.6815C488.132 94.9012 487.932 95.2608 487.871 95.5806L486.91 98.578C486.81 98.7578 486.85 98.8977 487.03 98.9978L487.13 98.818C487.13 98.818 487.77 97.879 487.91 97.8391C488.37 96.8001 488.87 95.901 489.511 94.962C489.951 94.3827 490.891 92.9043 491.151 92.2249C492.152 90.4267 493.352 89.3282 494.891 88.8895C495.45 88.7299 495.87 88.6102 496.19 88.6704L498.348 88.8116C500.327 88.8528 503.284 90.7334 503.882 92.8323C504.201 93.9518 504.301 94.8313 504.32 95.4309C504.334 96.6223 504.451 97.6282 504.538 98.3745L504.538 98.3754L504.538 98.3762L504.538 98.377L504.538 98.3777L504.538 98.3788V98.379V98.3794C504.572 98.6701 504.601 98.9213 504.618 99.1285L504.898 99.0488L506.638 96.1318C512.16 87.9008 515.9 83.5061 517.999 82.9078C518.331 82.8131 518.688 82.806 519.12 82.7975C519.234 82.7952 519.353 82.7928 519.478 82.7887C520.113 82.9596 520.7 82.9622 521.146 82.9642C521.276 82.9648 521.393 82.9653 521.496 82.9699C523.135 83.4106 523.974 84.2305 524.153 85.3899C524.353 86.0895 524.092 87.8282 523.37 90.6059C521.347 97.8397 520.724 103.615 521.321 107.833C521.54 109.132 521.78 109.972 522.079 110.492L522.199 110.911C522.458 111.291 522.778 111.352 523.018 111.132C525.977 109.835 529.638 104.101 534.221 94.1702C534.238 94.1166 534.257 94.0625 534.277 94.0078L534.278 94.0028L534.238 93.8629C534.295 93.7595 534.32 93.7155 534.322 93.6702C534.324 93.6369 534.315 93.6028 534.298 93.5438L534.298 93.5431L534.398 93.3633C534.358 93.2234 534.318 93.0834 534.458 93.0435C538.603 80.5146 543.944 73.2428 550.66 71.3282C553.319 70.5704 558.435 71.5329 559.672 75.8707C559.951 76.8502 559.91 77.7696 559.55 78.6288C559.59 78.7687 559.33 79.4481 559.23 79.6279ZM542.293 92.9285C543.832 92.4897 546.052 90.1926 548.713 86.2569C551.473 82.1414 552.954 78.8446 553.296 76.3265L553.156 76.3663C551.896 76.7253 549.816 78.9825 547.196 83.0582C544.575 87.1338 542.774 90.3705 542.073 92.6885C542.113 92.8284 542.153 92.9684 542.293 92.9285ZM465.905 78.6929C467.025 78.3738 468.384 78.8943 469.882 80.4342C470.041 80.6675 470.08 81.2774 470.113 81.8107C470.135 82.1459 470.154 82.4509 470.2 82.6129C470.819 83.1929 470.659 83.6925 470.079 84.3117C469.839 84.5314 469.599 84.7511 469.319 84.8309C468.9 84.9505 468.44 84.9303 467.98 84.91C466.081 85.1487 464.942 84.8682 464.383 83.9684C464.147 83.5084 463.861 83.1358 463.622 82.8235C463.518 82.688 463.423 82.5638 463.345 82.4488C463.125 82.2088 463.005 81.789 463.086 81.0096L462.966 80.5898C462.886 80.31 462.987 80.1301 463.087 79.9503L464.066 79.6711C464.406 79.2716 464.926 78.9721 465.905 78.6929ZM432.234 101.757L431.674 101.917C430.914 102.436 429.975 102.855 428.715 103.214C428.664 103.228 428.57 103.235 428.451 103.243C428.244 103.258 427.962 103.277 427.696 103.353L425.737 103.911C424.757 104.191 424.557 104.55 425.177 105.13C426.115 106.83 427.413 107.67 429.112 107.791C430.391 108.032 431.59 107.992 432.71 107.673C433.199 107.534 434.014 107.339 434.828 107.145L434.829 107.145L434.83 107.145L434.831 107.144C435.645 106.95 436.458 106.756 436.948 106.617L437.927 106.337C438.195 106.238 438.453 106.142 438.701 106.049C438.94 105.959 439.17 105.873 439.389 105.79L439.394 105.789C440.455 105.389 441.273 105.081 441.765 104.941C442.185 104.821 442.365 104.921 442.345 105.381L442.145 105.74C441.264 107.958 440.402 111.835 439.479 117.091C439.499 117.691 439.198 119.289 438.898 119.829C438.773 120.337 438.644 121.148 438.516 121.951L438.515 121.952C438.357 122.947 438.2 123.929 438.056 124.305L437.312 131.78C437.304 131.966 437.272 132.159 437.24 132.362C437.191 132.661 437.139 132.982 437.151 133.339C437.263 134.061 437.234 135.526 437.211 136.708V136.708V136.709V136.71V136.711V136.711V136.712V136.713V136.714V136.715V136.717V136.718C437.197 137.43 437.185 138.038 437.208 138.315L437.147 139.694C437.222 139.958 437.292 140.503 437.371 141.13V141.13L437.371 141.131L437.372 141.132L437.372 141.132L437.372 141.133L437.372 141.134C437.503 142.17 437.663 143.427 437.924 144.012C438.163 144.852 438.323 145.411 438.303 145.871C438.397 146.203 438.579 146.51 438.8 146.881L438.8 146.882C438.858 146.98 438.919 147.082 438.981 147.19C439.101 147.61 439.281 147.71 439.581 147.171L439.801 147.411C439.74 147.731 439.68 148.05 439.72 148.19C440.639 149.29 441.718 149.89 442.617 150.391C442.785 150.088 443.141 150.112 443.594 150.143C443.949 150.167 444.365 150.195 444.796 150.072C444.935 150.032 445.075 149.992 445.255 150.092C445.535 150.013 445.595 149.693 445.616 149.233C445.496 148.813 445.456 148.673 445.276 148.573C445.126 148.314 444.952 147.834 444.777 147.354C444.603 146.874 444.428 146.394 444.278 146.134L444.039 145.295C444.18 144.196 443.961 141.837 443.842 141.417C444.05 127.287 446.437 113.898 451.041 101.389L451.102 101.069C451.241 101.029 451.241 101.029 451.202 100.889C451.182 100.29 451.482 99.7502 452.142 99.4108L460.559 94.4394C462.059 93.8607 462.958 93.3016 463.198 93.0819C464.898 92.1436 466.497 91.3851 467.896 90.9863C468.316 90.8666 468.596 90.7868 468.776 90.8869L469.895 90.5678C471.215 89.889 471.715 88.99 471.396 87.8705C471.057 87.2107 470.657 86.8707 469.918 86.9302L469.238 86.67C467.42 86.1292 465.341 86.2679 463.242 86.8661C462.711 87.0174 461.823 87.3152 461.008 87.588L461.008 87.5882C460.319 87.8188 459.684 88.0316 459.364 88.1229C457.804 89.0213 456.345 89.74 454.806 90.1787C454.706 90.3585 454.706 90.3585 454.526 90.2585C454.066 90.2382 453.886 90.1382 453.986 89.9584L454.167 88.9991C454.427 88.3197 455.549 84.8228 455.889 83.364C456.871 79.9069 457.772 77.2293 458.352 75.5508C459.013 73.0928 459.775 70.4551 460.855 67.8775L461.695 67.6382C462.395 67.4387 462.595 67.0791 462.615 66.6194C462.675 66.2997 462.975 65.7602 463.476 64.8612C463.816 63.4023 463.877 62.0233 463.378 60.8038C463.219 59.1848 462.021 58.1648 459.603 57.6436C458.743 57.2833 457.824 57.2428 456.984 57.4821C456.005 57.7613 455.705 58.3008 455.984 59.2803L455.764 60.0996L454.502 63.6364C453.801 67.0137 452.819 70.4708 451.558 74.0076C451.317 74.4399 451.105 75.3559 450.918 76.1655C450.794 76.703 450.68 77.1936 450.576 77.4647L450.576 77.465C450.176 78.184 449.976 78.5436 450.016 78.6835L449.335 81.6011C447.873 85.4976 446.671 89.774 445.449 94.51C445.189 95.1894 444.989 95.549 444.709 95.6288C444.379 95.7985 444.119 95.9482 443.924 96.0605C443.73 96.1728 443.6 96.2477 443.53 96.2676C443.223 96.2541 443.023 96.6138 442.882 96.8669C442.812 96.9934 442.756 97.0933 442.71 97.1066C441.21 97.6853 439.511 98.6236 437.432 99.8215C436.252 100.46 434.613 101.079 432.234 101.757ZM384.334 139.014L383.853 140.512L383.373 142.011C383.39 142.072 383.324 142.243 383.242 142.454L383.242 142.455L383.242 142.455C383.136 142.729 383.003 143.071 382.992 143.33C382.987 143.356 382.983 143.382 382.978 143.41L382.971 143.454L382.962 143.518L382.96 143.532L382.956 143.553L382.955 143.562L382.955 143.566L382.954 143.568C382.911 143.867 382.853 144.262 382.651 144.789L382.611 145.708C382.991 145.448 383.371 145.189 383.571 144.829C385.171 141.952 386.312 140.114 387.032 139.455L388.132 137.477C388.356 136.892 388.863 136.113 389.536 135.079L389.681 134.856C389.744 134.759 389.808 134.661 389.873 134.56C390.813 133.082 391.713 131.463 392.574 129.705L394.415 126.608L397.196 122.033C397.858 121.128 398.438 120.178 399.035 119.201C399.321 118.732 399.612 118.257 399.916 117.777L400.116 117.418L401.236 117.099C402.215 116.82 402.995 116.9 403.674 117.16C404.034 117.36 404.354 117.42 404.813 117.441C405.912 117.581 406.632 117.981 406.751 118.401C407.509 121.06 407.727 124.478 407.584 128.755C407.537 129.824 407.634 130.761 407.708 131.473C407.729 131.679 407.749 131.866 407.762 132.033C408.021 133.472 407.86 135.031 407.46 136.809L407.138 139.927C407.088 140.017 407.143 140.342 407.197 140.667L407.197 140.667C407.252 140.992 407.307 141.316 407.257 141.406L407.016 143.744L406.934 146.642C406.951 146.702 406.961 146.736 406.98 146.763C407.006 146.8 407.05 146.825 407.154 146.882C406.713 147.462 406.613 147.641 406.753 147.602C406.893 147.562 406.893 147.562 406.993 147.382L409.334 144.445C410.254 143.427 413.953 141.01 415.492 140.572C417.311 140.053 419.01 140.174 420.268 140.874C420.417 140.922 420.554 140.974 420.685 141.023C420.991 141.138 421.265 141.241 421.587 141.255C422.686 141.396 423.585 142.955 423.185 143.674C423.085 143.854 422.985 144.034 422.845 144.074C422.425 144.194 422.005 144.313 421.905 144.493L420.826 143.893C420.686 143.933 420.506 143.833 420.466 143.693C420.287 143.593 419.967 143.532 419.827 143.572C417.908 144.271 416.248 145.349 415.028 146.907C414.828 147.267 414.588 147.486 414.208 147.746C413.928 147.826 413.828 148.006 413.768 148.325L413.528 148.545C413.388 148.585 413.288 148.765 413.188 148.945C413.118 148.965 413.093 149.01 413.068 149.054C413.043 149.099 413.018 149.144 412.948 149.164L412.168 150.143L411.608 151.362C411.428 151.262 411.228 151.622 411.068 152.121L410.628 152.701C410.348 152.78 410.248 152.96 410.327 153.24L409.287 154.898C409.166 155.116 408.971 155.369 408.759 155.644C408.27 156.279 407.687 157.037 407.686 157.775C407.726 157.915 407.586 157.955 407.446 157.995L407.206 158.215C407.186 158.674 406.786 159.394 406.086 160.652L404.525 163.669L404.204 164.668C403.91 164.87 403.808 165.107 403.73 165.287L403.73 165.288L403.729 165.289C403.718 165.314 403.708 165.338 403.697 165.361C403.692 165.373 403.687 165.384 403.682 165.395L403.674 165.409C403.671 165.416 403.668 165.422 403.664 165.428C403.524 165.468 402.784 167.646 402.824 167.786C402.683 168.885 401.882 171.383 400.481 174.959C399.079 178.536 397.999 181.114 397.298 182.372C395.898 184.89 395.177 186.608 394.957 187.427L394.717 187.647L394.417 188.187C394.077 188.586 393.876 188.946 393.716 189.445C393.616 189.625 393.416 189.985 393.036 190.244C392.736 190.784 392.236 191.683 391.856 191.942C391.556 192.482 391.316 192.702 390.896 192.821C390.196 193.021 389.517 192.76 388.898 192.18L387.879 191.26C387.34 190.96 387.08 190.58 386.921 190.021C386.661 189.641 386.641 189.041 386.722 188.262C387.183 186.163 388.324 183.266 389.865 179.65C391.406 176.033 393.007 173.156 394.307 170.818L395.128 168.92C395.708 168.301 396.308 167.222 396.929 165.683C398.429 162.986 399.511 159.349 399.973 155.132C399.983 154.922 400.026 154.606 400.066 154.312V154.312L400.066 154.311V154.311L400.066 154.31C400.113 153.964 400.156 153.649 400.134 153.573C400.234 153.394 400.455 152.574 400.475 152.115C400.435 151.975 400.555 151.335 400.736 150.376C400.724 150.019 400.776 149.698 400.824 149.4C400.857 149.196 400.888 149.003 400.897 148.817L401.278 145.38L401.905 134.308C401.954 133.185 401.871 132.301 401.807 131.612L401.806 131.609C401.792 131.453 401.778 131.306 401.767 131.17L401.907 130.07L401.73 126.793L401.65 126.513L401.23 126.632L401.23 126.633L401.23 126.633C400.73 127.532 400.43 128.071 400.47 128.211L398.049 131.927C397.949 132.107 397.989 132.247 398.029 132.386C398.008 132.846 397.768 133.066 397.488 133.146C397.468 133.605 395.588 136.562 395.208 136.822L393.407 140.058C393.43 140.138 393.27 140.27 393.11 140.402C392.99 140.502 392.87 140.601 392.827 140.678C392.811 141.034 392.664 141.246 392.551 141.407C392.534 141.432 392.517 141.456 392.502 141.48C392.489 141.499 392.477 141.518 392.467 141.537C392.485 142.103 392.094 142.651 391.596 143.348L391.506 143.475L389.486 146.472C387.585 149.888 385.565 151.826 383.366 152.604C381.267 153.202 379.209 151.822 376.953 148.682C376.613 148.023 376.414 147.323 376.454 146.404C376.416 144.145 377.218 140.588 378.859 135.732L379.94 133.155L382.182 127.22L385.785 119.687L387.066 116.75C387.166 116.57 387.406 116.351 387.546 116.311C387.786 116.091 388.065 116.011 388.245 116.111C388.505 116.491 389.184 116.752 390.064 116.652C390.743 116.912 391.422 117.173 392.182 117.713C392.581 118.053 392.701 118.473 392.501 118.832C392.161 120.008 391.759 120.961 391.42 121.763C391.379 121.861 391.339 121.956 391.3 122.049C391.279 122.509 391.079 122.869 390.639 123.448C389.078 126.465 387.997 129.043 387.397 131.181L386.976 132.36L385.855 134.797C385.635 135.617 385.335 136.156 385.095 136.376C385.269 136.631 385.082 137.058 384.953 137.353C384.89 137.497 384.841 137.609 384.854 137.655C384.754 137.835 384.354 138.554 384.334 139.014ZM343.435 136.601L343.156 135.621C343.654 135.165 344.602 134.509 345.973 133.559C346.584 133.136 347.279 132.654 348.055 132.106C349.018 131.428 349.854 130.851 350.569 130.358C351.726 129.561 352.563 128.984 353.094 128.552C353.141 128.538 353.228 128.601 353.337 128.679C353.548 128.831 353.842 129.044 354.093 128.872C354.192 129.752 353.972 130.571 353.672 131.111L353.752 131.39L352.128 140.024C351.587 141.842 351.145 144.54 350.743 148.437C350.481 152.294 350.46 154.873 350.718 156.312C350.858 157.331 351.157 157.851 351.697 158.151C351.896 158.851 352.335 159.331 352.835 159.491C353.654 159.711 354.714 159.712 355.693 159.433L355.973 159.353C356.153 159.453 356.293 159.413 356.393 159.233C357.61 157.631 357.116 156.878 356.795 156.388C356.651 156.169 356.542 156.002 356.635 155.836C356.995 154.977 357.616 153.438 358.277 150.98L360.019 145.944C360.417 145.228 360.927 144.038 361.365 143.013L361.366 143.012C361.697 142.238 361.988 141.559 362.16 141.249C362.424 140.774 362.794 139.932 363.144 139.137C363.456 138.426 363.752 137.752 363.941 137.413C364.057 137.204 364.2 136.853 364.357 136.467C364.606 135.853 364.892 135.151 365.162 134.795C365.877 133.897 366.661 132.344 367.681 130.32C367.773 130.137 367.867 129.95 367.963 129.76C368.263 129.221 369.983 127.823 370.443 127.843C370.467 127.93 370.561 128.054 370.69 128.227C370.769 128.333 370.863 128.458 370.962 128.603L371.581 129.183L371.661 129.463C371.84 130.622 372.119 131.602 372.638 132.361L372.758 132.781C372.658 132.961 372.918 133.341 373.397 133.961C373.577 134.061 373.936 134.261 374.396 134.281L374.916 133.982C375.096 134.082 375.376 134.002 375.436 133.682C375.626 133.552 375.846 133.263 376.066 132.973C376.286 132.683 376.506 132.394 376.696 132.264C376.936 132.044 377.136 131.685 377.156 131.225L376.898 127.667L376.42 125.988C375.561 124.568 374.183 123.448 372.185 122.808C372.125 122.825 372.091 122.834 372.058 122.832C372.012 122.829 371.968 122.805 371.865 122.747C371.365 122.587 370.626 122.647 369.646 122.926L368.667 123.205C365.547 126.061 362.546 130.397 359.845 136.311L359.565 136.391C359.205 136.191 359.165 136.051 359.305 136.011L359.626 135.012L360.087 132.913C360.007 132.633 360.027 132.174 360.287 131.494L360.548 130.815C360.49 130.101 360.842 128.848 361.407 126.84L361.407 126.839L361.47 126.618C362.21 124.44 362.811 123.361 363.33 123.062C363.51 123.162 363.75 122.942 363.81 122.623L364.01 122.263C364.15 122.223 364.111 122.083 364.031 121.803C363.763 121.576 363.524 121.37 363.314 121.188C362.58 120.555 362.182 120.212 362.073 120.243C361.014 119.183 359.595 118.982 357.776 119.501C356.097 119.98 354.158 121.138 351.918 122.835L348.579 125.451C345.279 128.207 342.44 129.924 340.061 130.603L339.162 130.102C337.932 129.496 336.87 129.01 335.975 128.638C336.322 128.508 336.659 128.395 336.985 128.302C337.405 128.183 337.685 128.103 337.865 128.203L338.984 127.884C340.304 127.205 340.804 126.306 340.485 125.186C340.146 124.527 339.746 124.187 339.006 124.246L338.327 123.986C336.509 123.445 334.43 123.584 332.331 124.182C331.8 124.333 330.911 124.631 330.097 124.904C329.408 125.135 328.773 125.347 328.453 125.439C326.893 126.337 325.434 127.056 323.895 127.495C323.845 127.585 323.82 127.629 323.785 127.639C323.75 127.649 323.705 127.624 323.615 127.574C323.155 127.554 322.975 127.454 323.075 127.274L323.256 126.315C323.516 125.636 324.637 122.139 324.978 120.68C325.96 117.223 326.861 114.545 327.441 112.867C328.102 110.409 328.863 107.771 329.944 105.193L330.784 104.954C331.484 104.755 331.684 104.395 331.704 103.935C331.764 103.616 332.064 103.076 332.564 102.177C332.905 100.718 332.966 99.3392 332.467 98.1198C332.308 96.5007 331.11 95.4807 328.691 94.9595C327.832 94.5993 326.913 94.5587 326.073 94.798C325.094 95.0772 324.794 95.6167 325.073 96.5962L324.853 97.4155L323.591 100.952C322.89 104.33 321.908 107.787 320.647 111.324C320.406 111.756 320.194 112.672 320.007 113.481L320.007 113.482L320.007 113.484L320.006 113.485C319.882 114.021 319.769 114.51 319.665 114.781C319.265 115.5 319.065 115.859 319.105 115.999L318.424 118.917C316.962 122.814 315.76 127.09 314.538 131.826C314.278 132.505 314.078 132.865 313.798 132.945C313.468 133.114 313.208 133.264 313.013 133.376C312.818 133.489 312.688 133.564 312.618 133.584C312.312 133.57 312.112 133.93 311.971 134.183L311.971 134.183L311.971 134.183C311.9 134.31 311.845 134.409 311.798 134.423C310.299 135.001 308.6 135.939 306.52 137.137C305.341 137.776 303.702 138.395 301.323 139.073L300.763 139.232C300.156 139.647 299.434 139.998 298.525 140.306C296.801 139.308 295.227 138.994 293.746 139.417C290.807 140.254 287.268 143.23 283.088 148.204C278.907 153.178 276.466 157.354 275.445 160.671C274.925 162.03 275.004 163.369 275.822 164.649C275.882 164.858 276.122 165.168 276.361 165.478L276.361 165.478L276.361 165.478C276.601 165.788 276.841 166.098 276.901 166.308C278.238 169.407 282.155 170.409 285.553 169.591L290.031 168.315C292.129 167.717 293.489 167.178 294.429 166.759C296.807 166.081 298.007 166.041 298.266 166.421C298.306 166.561 298.206 166.741 298.106 166.921C292.406 172.933 286.708 176.827 280.83 178.502C279.151 178.981 278.192 178.8 277.993 178.101C277.913 177.821 277.773 177.861 277.673 178.041C277.573 178.22 277.293 178.3 276.873 178.42C276.353 178.719 276.153 179.079 276.053 179.259C275.953 179.439 276.033 179.719 276.193 180.278L276.312 180.698C276.591 181.678 277.031 182.157 277.63 182.138C278.13 182.298 278.49 182.498 278.889 182.838C280.307 184.098 282.466 184.239 285.125 183.482L286.524 183.083C287.503 182.804 288.023 182.504 288.363 182.105L288.923 181.945C290.462 181.506 292.781 180.089 295.841 177.552C298.9 175.016 301.2 172.999 302.94 171.141C303.42 170.702 303.86 170.122 304.36 169.223C304.861 168.324 305.101 167.045 305.082 165.386L304.923 164.826C304.064 163.407 301.527 161.407 300.108 161.206C299.968 161.246 299.289 160.986 299.109 160.885C299.069 160.746 299.029 160.606 298.889 160.645C298.19 160.845 297.45 160.904 296.911 160.604C295.392 160.583 293.353 160.862 290.834 161.58C290.639 161.635 290.332 161.755 290.004 161.884C289.624 162.033 289.215 162.193 288.915 162.278C288.656 162.352 288.328 162.388 287.874 162.437L287.873 162.437L287.87 162.438C287.591 162.468 287.264 162.504 286.876 162.557C286.636 162.776 286.396 162.996 286.256 163.036L284.997 163.395C282.338 164.153 281.039 164.372 280.959 164.092C280.779 163.992 280.7 163.712 280.8 163.532C282.521 160.016 285.081 156.26 288.342 152.305C291.657 148.225 294.718 145.838 297.487 145.008C297.716 145.057 297.955 145.089 298.201 145.107C298.653 145.192 299.095 145.242 299.528 145.257C299.653 145.523 299.606 146.556 299.157 148.314C298.796 150.232 298.655 151.332 298.835 151.432C299.295 151.452 300.475 149.754 302.576 145.978C302.727 145.555 302.8 145.134 302.788 144.733C303.14 144.646 303.527 144.554 303.914 144.462L303.918 144.461C304.732 144.266 305.547 144.072 306.037 143.933L307.016 143.653C307.542 143.459 308.03 143.275 308.477 143.107L308.483 143.104C309.544 142.705 310.362 142.397 310.854 142.257C311.274 142.137 311.454 142.237 311.434 142.697L311.234 143.056C310.353 145.274 309.491 149.151 308.568 154.407C308.588 155.007 308.287 156.605 307.987 157.145C307.862 157.653 307.732 158.464 307.604 159.267L307.604 159.268C307.446 160.263 307.289 161.245 307.145 161.621L306.401 169.096C306.393 169.282 306.361 169.475 306.328 169.678C306.28 169.977 306.228 170.298 306.24 170.655C306.351 171.376 306.323 172.842 306.3 174.023V174.024V174.024V174.025V174.026V174.027V174.027V174.028V174.029V174.031C306.286 174.744 306.274 175.353 306.297 175.631L306.236 177.01C306.311 177.274 306.381 177.82 306.46 178.447V178.447L306.46 178.448L306.46 178.448L306.461 178.449L306.461 178.45C306.592 179.486 306.752 180.743 307.013 181.328C307.252 182.167 307.412 182.727 307.391 183.187C307.486 183.519 307.668 183.826 307.888 184.197L307.889 184.197L307.889 184.198C307.947 184.296 308.008 184.398 308.07 184.506C308.19 184.926 308.37 185.026 308.67 184.487L308.889 184.727C308.829 185.047 308.769 185.366 308.809 185.506C309.728 186.606 310.807 187.206 311.706 187.706C311.874 187.404 312.23 187.428 312.683 187.459C313.038 187.483 313.453 187.511 313.884 187.388C314.024 187.348 314.164 187.308 314.344 187.408C314.624 187.329 314.684 187.009 314.704 186.549C314.585 186.129 314.545 185.989 314.365 185.889C314.215 185.629 314.041 185.15 313.866 184.67C313.692 184.19 313.517 183.71 313.367 183.45L313.128 182.611C313.268 181.512 313.05 179.153 312.93 178.733C313.139 164.603 315.526 151.213 320.13 138.705L320.19 138.385C320.33 138.345 320.33 138.345 320.29 138.205C320.271 137.606 320.571 137.066 321.231 136.727L324.354 134.882C324.387 135.039 324.425 135.195 324.469 135.35C325.067 137.449 326.905 138.589 329.883 138.951L329.463 139.07C329.044 139.19 328.764 139.27 328.664 139.449C326.804 140.887 325.003 144.124 322.982 149.239C321.06 154.175 320.558 158.252 321.435 161.33C322.233 164.129 323.99 166.049 326.528 166.99C329.066 167.931 331.224 168.072 333.043 167.553C336.682 166.516 339.802 162.601 342.264 155.847C344.687 148.953 345.151 142.618 343.435 136.601ZM337.797 140.175C337.518 139.195 336.579 138.555 334.92 138.574C335.184 138.499 335.689 138.321 336.221 138.134L336.222 138.133C336.818 137.924 337.449 137.702 337.819 137.596C338.178 138.856 338.177 139.915 338.036 141.014L338.116 141.294C338.894 144.552 338.191 148.989 335.869 154.644C333.648 160.119 331.487 163.155 329.528 163.714L328.889 162.534C328.291 160.435 329.013 156.598 331.055 151.023C333.097 145.448 334.838 142.531 336.237 142.132C337.496 141.773 338.076 141.154 337.797 140.175ZM333.977 133.104C332.482 133.805 331.563 134.235 331.145 134.354C331.086 133.615 331.306 132.796 331.526 131.976C331.626 131.796 331.766 131.757 331.906 131.717C332.006 131.537 332.286 131.457 332.566 131.377C333.266 131.178 334.265 131.498 335.703 132.299C335.06 132.597 334.487 132.866 333.979 133.103L333.977 133.104ZM226.142 197.874C225.742 197.534 225.382 197.334 224.883 197.174C224.283 197.193 223.844 196.713 223.565 195.734L223.445 195.314C223.285 194.754 223.206 194.474 223.306 194.294C223.406 194.115 223.606 193.755 224.126 193.456C224.545 193.336 224.825 193.256 224.925 193.076C225.025 192.896 225.165 192.857 225.245 193.136C225.445 193.836 226.404 194.017 228.083 193.538C233.96 191.863 239.659 187.969 245.358 181.956C245.458 181.777 245.559 181.597 245.519 181.457C245.259 181.077 244.06 181.116 241.681 181.794C240.741 182.213 239.382 182.752 237.283 183.35L232.805 184.627C229.407 185.444 225.49 184.442 224.153 181.344C224.093 181.134 223.854 180.824 223.614 180.514C223.374 180.204 223.135 179.894 223.075 179.684C222.256 178.405 222.177 177.065 222.698 175.707C223.719 172.39 226.16 168.214 230.34 163.24C234.52 158.266 238.06 155.29 240.998 154.452C243.377 153.774 245.995 154.995 249.091 157.895C250.07 158.675 250.249 159.834 249.828 161.013C247.727 164.789 246.547 166.488 246.087 166.467C245.908 166.367 246.048 165.268 246.409 163.35C246.91 161.391 246.911 160.332 246.731 160.232C246.191 159.932 245.552 159.811 244.852 160.011C242.054 160.809 238.954 163.205 235.594 167.34C232.334 171.296 229.773 175.051 228.052 178.568C227.952 178.748 228.032 179.028 228.212 179.128C228.292 179.408 229.591 179.189 232.249 178.431L233.509 178.072C233.649 178.032 233.889 177.812 234.129 177.593L234.129 177.592C234.516 177.54 234.843 177.504 235.122 177.473L235.125 177.473L235.126 177.473H235.127L235.127 177.473C235.58 177.424 235.908 177.388 236.167 177.314C236.467 177.228 236.876 177.068 237.256 176.92L237.257 176.919L237.259 176.919C237.587 176.791 237.892 176.671 238.087 176.616C240.605 175.898 242.644 175.619 244.163 175.64C244.703 175.94 245.442 175.881 246.142 175.681C246.282 175.641 246.322 175.781 246.361 175.921C246.541 176.021 247.221 176.281 247.361 176.242C248.78 176.442 251.317 178.442 252.175 179.862L252.335 180.422C252.354 182.081 252.113 183.36 251.613 184.259C251.113 185.158 250.673 185.737 250.193 186.177C248.453 188.034 246.153 190.051 243.093 192.588C240.034 195.124 237.715 196.542 236.175 196.981L235.616 197.14C235.276 197.54 234.756 197.839 233.776 198.118L232.377 198.517C229.718 199.275 227.56 199.134 226.142 197.874ZM225.986 148.141C227.807 144.444 228.408 142.306 227.749 141.586C227.01 140.586 224.892 139.526 223.772 139.845C222.793 140.124 222.273 140.424 222.073 140.783C221.927 140.825 221.772 140.833 221.623 140.84H221.623C221.343 140.854 221.084 140.867 220.953 141.102C220.853 141.282 220.753 141.462 220.833 141.742L220.953 142.162C220.793 142.661 220.912 143.081 221.172 143.461C221.392 143.701 221.591 144.401 221.91 145.52C222.107 145.735 222.046 147.392 221.982 149.137V149.137C221.903 151.284 221.819 153.565 222.205 153.455C222.945 153.395 224.265 151.657 225.986 148.141ZM190.076 170.783L190.636 170.624C193.015 169.946 194.654 169.327 195.833 168.688C197.913 167.49 199.612 166.552 201.112 165.973C201.158 165.96 201.214 165.86 201.284 165.734C201.425 165.48 201.625 165.121 201.931 165.134C202.001 165.114 202.131 165.04 202.326 164.927C202.521 164.815 202.781 164.665 203.111 164.496C203.391 164.416 203.591 164.056 203.851 163.377C205.073 158.641 206.275 154.364 207.737 150.468L208.418 147.55C208.378 147.41 208.578 147.051 208.978 146.331C209.082 146.06 209.196 145.57 209.32 145.032C209.507 144.223 209.719 143.307 209.96 142.874C211.221 139.337 212.203 135.88 212.904 132.503L214.166 128.966L214.386 128.147C214.107 127.167 214.407 126.628 215.386 126.349C216.226 126.11 217.145 126.15 218.004 126.51C220.423 127.031 221.621 128.052 221.78 129.671C222.279 130.89 222.218 132.269 221.877 133.728L221.877 133.728L221.877 133.728C221.377 134.627 221.077 135.166 221.017 135.486C220.997 135.946 220.797 136.305 220.097 136.505L219.257 136.744C218.176 139.322 217.415 141.96 216.754 144.417C216.174 146.096 215.273 148.774 214.291 152.231C213.95 153.689 212.829 157.186 212.569 157.866L212.388 158.825C212.288 159.005 212.468 159.105 212.928 159.125C213.018 159.175 213.063 159.2 213.098 159.19C213.133 159.18 213.158 159.135 213.208 159.045C214.747 158.607 216.206 157.888 217.766 156.99C218.086 156.898 218.721 156.686 219.409 156.455L219.41 156.455C220.224 156.182 221.113 155.884 221.644 155.733C223.743 155.135 225.822 154.996 227.64 155.537L228.319 155.797C229.059 155.737 229.458 156.077 229.798 156.737C230.117 157.857 229.617 158.756 228.297 159.434L227.178 159.754C226.998 159.654 226.718 159.733 226.298 159.853C224.899 160.252 223.3 161.01 221.6 161.949C221.36 162.168 220.46 162.727 218.961 163.306L210.544 168.278C209.884 168.617 209.584 169.156 209.603 169.756C209.623 169.826 209.633 169.861 209.621 169.883C209.608 169.906 209.573 169.916 209.503 169.936L209.443 170.256C204.839 182.764 202.452 196.154 202.243 210.284C202.363 210.704 202.581 213.062 202.441 214.162L202.68 215.001C202.83 215.261 203.005 215.741 203.179 216.221C203.354 216.7 203.528 217.18 203.678 217.44C203.858 217.54 203.898 217.68 204.017 218.1C203.997 218.56 203.937 218.879 203.657 218.959C203.477 218.859 203.337 218.899 203.197 218.939C202.767 219.062 202.351 219.034 201.996 219.01C201.543 218.979 201.187 218.955 201.019 219.257C200.12 218.757 199.041 218.157 198.122 217.057C198.082 216.917 198.142 216.597 198.202 216.278L198.202 216.278L197.983 216.038C197.683 216.577 197.503 216.477 197.383 216.057C197.321 215.949 197.26 215.846 197.202 215.748C196.981 215.377 196.799 215.07 196.704 214.738C196.725 214.278 196.565 213.718 196.326 212.879C196.065 212.294 195.905 211.036 195.774 210.001C195.694 209.372 195.624 208.825 195.549 208.561L195.61 207.182C195.587 206.903 195.599 206.292 195.613 205.577C195.636 204.395 195.665 202.928 195.553 202.205C195.546 202.007 195.56 201.819 195.581 201.641C193.2 205.681 191.145 208.324 189.361 209.871C189.208 210.011 188.967 210.267 188.695 210.556C188.111 211.177 187.387 211.947 187.101 212.028C186.821 212.108 186.681 212.148 186.501 212.048C186.206 212.18 185.939 212.303 185.698 212.415C185.171 212.659 184.77 212.844 184.482 212.926C180.844 213.963 177.707 213.042 175.17 209.982C174.212 208.743 173.673 207.383 173.514 205.764C172.976 202.286 173.759 197.07 175.862 190.116L177.705 182.782L178.186 181.284C178.286 181.104 178.666 180.844 179.086 180.725C180.625 180.286 182.044 180.487 183.202 181.367L185.02 182.967C185.6 183.407 185.619 184.006 185.259 184.866C184.878 186.184 184.798 186.964 184.878 187.244L184.818 187.563C184.317 188.463 183.897 189.642 183.696 191.06C183.676 191.52 183.476 191.88 183.376 192.06C182.675 193.318 182.054 195.916 181.372 199.893C180.69 203.87 180.529 206.488 180.748 207.787C180.947 208.487 181.267 208.547 181.367 208.367L181.607 208.148C181.976 208.042 182.285 207.575 182.576 207.134C182.836 206.739 183.083 206.365 183.347 206.29C183.723 206.018 184.057 205.836 184.336 205.685C185.08 205.281 185.426 205.093 185.107 203.973C185.927 203.134 188.088 200.097 191.488 195.043L194.929 190.128C196.339 188.173 197.309 186.91 197.87 186.283C197.88 186.157 197.884 186.046 197.881 185.958C198.804 180.702 199.666 176.825 200.547 174.607L200.747 174.247C200.767 173.788 200.587 173.688 200.167 173.807C199.675 173.948 198.857 174.256 197.796 174.655L197.796 174.655C197.348 174.824 196.857 175.009 196.329 175.204L195.35 175.483C194.86 175.623 194.045 175.817 193.231 176.012C192.416 176.206 191.601 176.4 191.112 176.54C189.992 176.859 188.793 176.898 187.514 176.658C185.815 176.537 184.517 175.696 183.578 173.997C182.959 173.417 183.159 173.057 184.139 172.778L186.098 172.22C186.364 172.144 186.646 172.124 186.853 172.11C186.972 172.102 187.066 172.095 187.117 172.081C188.377 171.722 189.316 171.302 190.076 170.783ZM189.611 160.325C188.113 158.785 186.754 158.264 185.635 158.584C184.655 158.863 184.136 159.162 183.796 159.562L182.816 159.841C182.716 160.021 182.616 160.201 182.696 160.48L182.815 160.9C182.735 161.68 182.855 162.099 183.074 162.339C183.153 162.454 183.248 162.579 183.352 162.714C183.591 163.027 183.876 163.399 184.113 163.859C184.672 164.759 185.811 165.039 187.71 164.801C188.169 164.821 188.629 164.841 189.049 164.722C189.329 164.642 189.569 164.422 189.809 164.202C190.389 163.583 190.549 163.084 189.93 162.504C189.883 162.342 189.864 162.037 189.843 161.701C189.809 161.168 189.771 160.558 189.611 160.325Z" fill="#FFD401"/>
</svg>
