<?xml version="1.0" encoding="UTF-8"?><svg id="Capa_2" xmlns="http://www.w3.org/2000/svg" viewBox="0 0 319.02 356"><defs><style>.cls-1{fill:#fff;stroke-width:0px;}</style></defs><g id="Capa_1-2"><path class="cls-1" d="m313.33,10l5.69-3.09-6.42.85,2.79-5.85-4.7,4.46-1.18-6.37-1.18,6.37-4.7-4.46,2.79,5.85-6.42-.85,5.69,3.09H74.88c-1.72-.05-3.42-.05-5.09,0H13.33l5.69-3.09-6.42.85,2.79-5.85-4.7,4.46-1.18-6.37-1.18,6.37L3.63,1.91l2.79,5.85-6.42-.85,5.69,3.09L0,13.09l6.42-.85-2.79,5.85,4.7-4.46.18.97v63.65c-.03,1.68-.04,3.39,0,5.12v258.02l-.18.97-4.7-4.46,2.79,5.85-6.42-.85,5.69,3.09-5.69,3.09,6.42-.84-2.79,5.84,4.7-4.46,1.18,6.37,1.18-6.37,4.7,4.46-2.79-5.84,6.42.84-5.69-3.09h230.46c.99.03,1.97.05,2.94.05s1.84-.02,2.75-.05h56.21l-5.69,3.09,6.42-.84-2.79,5.84,4.7-4.46,1.18,6.37,1.18-6.37,4.7,4.46-2.79-5.84,6.42.84-5.69-3.09,5.69-3.09-6.42.85,2.79-5.85-4.7,4.46-.18-.97v-63.64c.03-1.69.04-3.4,0-5.13V14.6l.18-.97,4.7,4.46-2.79-5.85,6.42.85-5.69-3.09Zm-72.69,106.03l1.78,3.73-6.42-.85,5.69,3.09-5.69,3.09,6.42-.84-2.79,5.84,4.7-4.46,1.18,6.37,1.18-6.37,4.7,4.46-.33-.69c27.21,36.5,46.28,75.44,54.35,111.36,2.54,11.31,3.9,21.95,4.11,31.79v5.24c-.5,23.55-7.96,42.13-22.05,53.88-10.12,8.44-23.08,12.88-38.19,13.32h-5.19c-14.74-.43-31.33-4.44-49.18-12.04-38.39-16.35-78.04-47.35-111.9-87.43l-.26-.47,6.46.46-5.87-2.74,5.49-3.43-6.36,1.23,2.43-6-4.42,4.73-1.56-6.28-.79,6.43-.51-.43c-32.35-39.98-55-83.74-63.99-123.77-2.54-11.32-3.9-21.95-4.11-31.8v-5.23c.5-23.56,7.96-42.14,22.05-53.89,10.05-8.39,22.91-12.83,37.89-13.32h5.8c14.66.48,31.15,4.49,48.89,12.04,39.09,16.64,79.47,48.46,113.72,89.6.94,1.13,1.86,2.26,2.79,3.39ZM9.51,20h0s1.18-6.37,1.18-6.37l4.7,4.46-2.79-5.85,6.42.85-3.85-2.09h44.03c-10.89,1.82-20.43,6-28.28,12.56-11.68,9.74-18.88,24.08-21.41,41.98V20Zm5.66,325l3.85-2.09-6.42.85,2.79-5.85-4.7,4.46-1.18-6.37h0s0-238.63,0-238.63c.69,5.82,1.73,11.85,3.13,18.09,8.73,38.88,30.29,81.25,61.07,120.28l-.55-.46,3.14,5.67-6.46-.46,5.87,2.74-5.49,3.43,6.36-1.23-2.43,6,4.42-4.73,1.56,6.29.79-6.43,4.96,4.17-.46-.83c33.24,38.4,71.75,68.09,109.09,83.99,13.49,5.75,26.27,9.44,38.1,11.12H15.17Zm294.34-9l-1.18,6.37-4.7-4.46,2.79,5.85-6.42-.85,3.85,2.09h-44.09c10.91-1.81,20.47-5.99,28.34-12.55,11.68-9.74,18.88-24.08,21.41-41.98v45.53Zm-3.13-95.46c-8.38-37.34-28.61-77.91-57.47-115.65l-.31-.65,6.42.84-5.69-3.09,5.69-3.09-6.42.85,2.79-5.85-4.7,4.46-1.18-6.37-1.18,6.37-2.18-2.07c-1.16-1.44-2.34-2.87-3.53-4.3-34.35-41.25-74.87-73.17-114.1-89.88-13.47-5.73-26.23-9.44-38.04-11.12h217.36l-3.85,2.09,6.42-.85-2.79,5.85,4.7-4.46,1.18,6.37v238.63c-.69-5.82-1.73-11.85-3.13-18.09Z"/><path class="cls-1" d="m157.32,157.61c-12.99,0-21.87,11.77-21.87,26.42s8.77,26.42,21.87,26.42,21.87-11.77,21.87-26.53-8.66-26.31-21.87-26.31Zm.33,49.73c-7.33,0-11.88-10.77-11.88-24.42s4.66-22.2,11.32-22.2c7.33,0,11.77,10.77,11.77,24.42,0,11.77-4.11,22.2-11.21,22.2Z"/><path class="cls-1" d="m143.21,142.62c2.22-.55,2.77-.78,2.77-1.89,0-.89-.67-1.55-1.89-1.55-1.55,0-3.77.44-5.66.44-2.11,0-4.66-.44-6.22-.44-1.33,0-1.89.67-1.89,1.67,0,1.11,1.11,1.44,2.11,1.55,2.11.33,3.33.78,3.33,2.55,0,1.66-.55,4.11-1.11,5.88l-10.66,34.3c-.89,2.66-1.78,6.33-2.33,6.33s-1.55-3.33-2-4.55l-5.99-17.65c-.56-1.55-1.22-3.22-1.22-4,0-.89,1.33-3.66,4-10.54l3-7.77c.78-2.11,2.33-4.33,4.44-4.55,1.66-.22,2.22-.55,2.22-1.66,0-1-.67-1.55-1.66-1.55-1.44,0-3.44.44-5.77.44-1.78,0-4-.44-4.99-.44s-1.67.55-1.67,1.55c0,1.22.89,1.44,1.89,1.66,1.11.22,2.22.56,2.22,2.33,0,1.33-1.33,5.33-2.66,8.88-1.33,3.44-2.33,6.88-2.89,6.88-.33,0-.78-.67-1.66-3.44l-2.33-6.99c-.89-2.66-1.33-4.33-1.33-5.22,0-1,.33-1.89,1.67-2.22.89-.22,2.44-.33,2.44-1.78,0-1.11-.67-1.67-2-1.67-1.55,0-4.22.44-7.66.44s-5.66-.44-7.66-.44c-1.78,0-2.66.67-2.66,1.67,0,1.55,1.22,1.55,2.33,1.78,1.78.33,2.89,2.44,3.55,4.33l7.88,22.64c.33,1.11,1.55,4,1.55,5.11,0,.22-.11.89-1.22,3.89l-4.11,10.99c-.55,1.55-1.11,2.55-1.55,2.55-.78,0-1.78-3.33-2.11-4.22l-12.54-36.85c-.67-2-1.55-4.77-1.55-6.22,0-1.66,1.11-2.22,2.44-2.44,1.33-.22,1.89-.44,1.89-1.55,0-1.22-.56-1.67-2.44-1.67-2.33,0-5.33.44-7.99.44s-5.99-.44-8.66-.44c-1.66,0-2.11.89-2.11,1.67,0,1.11,1.44,1.44,2.89,1.78,1.78.55,2.89,2.55,3.88,5.55l19.2,57.61c1.22,3.77,1.78,4.66,3.22,4.66,2.11,0,2.22-1.55,3.33-4.55l9.21-25.53h.22l8.77,27.42c.55,1.78.89,2.66,2.55,2.66,2.22,0,2.22-1.66,3.77-6.55l16.65-52.84c1.55-4.88,2.66-7.88,4.77-8.44Z"/><path class="cls-1" d="m229.87,160.05c0,1.33,1.33,1.55,3.33,1.78,1.55.22,3,.78,3,2.55,0,1.44-1.66,3.55-6.55,8.99l-5.22,5.88c-1.22,1.44-2.22,2.44-2.89,2.44-.44,0-.67-.55-.67-2.55v-46.51c0-.78,0-1.67-.78-1.67-.44,0-1.11.33-2.22.89-3.89,1.78-7.21,2.78-10.88,3.89-1.44.44-1.66.78-1.66,1.44,0,1,.55,1.22,3.22,1.67,1.44.22,2.77.67,2.77,3.33v59.83c0,2.66-.11,3.88-3.33,4.33-1.33.22-2.66.55-2.66,1.66,0,.89.44,1.44,1.78,1.44,1.89,0,5.88-.44,9.1-.44,2.89,0,7.77.44,9.32.44,1,0,1.55-.44,1.55-1.33,0-1-1.22-1.44-3-1.66-3.11-.44-3.22-2.55-3.22-6.11v-11.65c0-2.33,3.33-5.33,3.89-5.33.67,0,1.22,1.33,3.11,4.33,1.55,2.44,3.77,6.22,6.44,11.21,1.89,3.44,3,5.66,3,6.1,0,1.11-.89,1.44-1.66,1.67-1,.22-1.89.44-1.89,1.33,0,1.11.22,1.44,1.55,1.44,1.78,0,4.88-.44,8.33-.44s6.55.44,8.55.44c1.66,0,2-.33,2-1.33,0-1.78-2.89-1.55-3.89-2.11-1.22-.67-3.22-3.44-5.22-7.1l-7.88-14.32c-2.55-4.66-4.99-8.21-4.99-9.1,0-1.22,2.44-3.33,5.22-6.1,1.78-1.78,7.1-6.44,9.77-7.33,2.11-.67,3.89-.67,3.89-2.11,0-.89-.44-1.22-2.22-1.22-2.33,0-4.88.33-8.33.33-2.77,0-5.99-.33-7.99-.33-2.11,0-2.66.22-2.66,1.33Z"/><path class="cls-1" d="m210.87,165.71c0-4.77-2.66-7.99-6.88-7.99s-7.1,3.11-9.1,6.66c-1,1.78-1.55,3-2.22,3-.33,0-.44-.78-.44-1.44v-4.44c0-2.78-.11-3.89-1.11-3.89-.78,0-1.66.78-2.33,1.55-1.33,1.44-4.99,3.66-8.77,4.77-1.66.44-2.55.78-2.55,2,0,.78.33,1,2.11,1.11,2.55.11,3.66,1.11,3.66,4.88v28.75c0,3.77-.33,5.22-2.89,5.55-2.11.33-3.44.55-3.44,1.89,0,1,.89,1.33,2.33,1.33.67,0,4-.44,8.99-.44,5.99,0,9.21.44,10.21.44,1.89,0,2.66-.22,2.66-1.33,0-1.22-1.55-1.33-4.11-1.78-3.22-.44-4.11-1.44-4.11-6.55v-22.76c0-2.11.44-4.88,1.55-7.21,1.22-2.66,2.66-4.66,4.66-4.66,1.44,0,1.67,1.89,2.11,3.55.55,2.33,1.55,4,4.33,4,3.55,0,5.33-3,5.33-6.99Z"/></g></svg>