        <svg width="1951" height="269" viewBox="0 0 1951 269" fill="none" xmlns="http://www.w3.org/2000/svg">
<path d="M78.4188 25.2816L124.016 174.873C128.363 189.392 130.698 195.78 137.676 197.524C143.768 198.973 144.949 200.422 144.949 202.167C144.949 204.77 142.345 205.36 137.676 205.36C129.839 205.36 122.003 204.206 114.139 204.206C105.712 204.206 96.1315 205.36 89.7442 205.36C85.1013 205.36 83.0617 204.206 83.0617 201.576C83.0617 198.088 86.5506 197.524 90.603 196.934C95.2459 196.343 99.5935 195.78 99.5935 189.661C99.5935 187.621 98.7347 184.132 96.9903 178.63C87.1141 147.553 89.1538 141.461 80.4316 141.461H45.0063C38.0286 141.461 38.3238 148.438 33.3857 166.151C29.6016 179.516 28.4476 185.313 28.4476 187.943C28.4476 193.472 32.7953 195.78 37.7334 196.665C42.3762 197.524 47.6095 197.819 47.6095 201.603C47.6095 204.797 45.5699 205.387 41.8127 205.387C37.7602 205.387 29.3333 204.233 23.2144 204.233C18.8667 204.233 5.79686 205.387 4.34764 205.387C1.74442 205.387 0 204.233 0 201.603C0 199.564 0.590437 198.114 6.68252 196.96C9.87617 196.37 13.6602 194.062 15.4047 188.829C17.7395 181.583 20.9332 171.975 22.6508 165.883L36.8746 117.951C42.6715 98.1988 58.3713 39.5322 61.565 27.6164C63.3094 20.6387 64.7586 18.5991 70.2871 18.5991C74.93 18.5991 76.6744 19.7531 78.4188 25.2816ZM44.4427 125.788C43.8523 128.122 43.5839 129.276 43.5839 130.726C43.5839 132.47 45.3283 132.765 48.522 132.765H77.2649C80.4585 132.765 81.9077 131.907 81.9077 130.162C81.9077 128.123 80.4585 122.326 77.8552 114.489C65.3759 75.5749 65.6442 67.7384 61.887 67.7384C60.1426 67.7384 59.2838 70.3416 57.8346 75.8701C53.4869 93.878 45.3552 121.467 44.4696 125.841L44.4427 125.788Z" fill="white"/>
<path d="M221.328 74.0718C230.318 78.4195 230.614 79.0099 230.614 92.3749C230.614 99.9162 230.318 104.854 229.46 108.638C228.601 112.127 227.125 113.872 223.663 113.872C219.879 113.872 218.429 110.678 216.98 107.484C214.941 103.405 213.491 99.0574 211.452 94.7097C207.399 85.7192 204.179 79.6003 194.893 79.6003C177.744 79.6003 163.225 102.251 163.225 132.765C163.225 170.23 176.59 192.317 198.355 192.317C211.425 192.317 220.147 185.34 225.085 174.9C227.688 169.667 229.433 167.063 230.614 167.063C232.358 167.063 233.512 168.808 233.512 171.411C233.512 185.635 217.839 208.017 189.955 208.017C157.723 208.017 135.931 182.173 135.931 143.527C135.931 101.124 163.225 69.751 198.677 69.751C207.668 69.751 216.095 71.4954 221.328 74.0986V74.0718Z" fill="white"/>
<path d="M273.902 38.6195V67.3624C273.902 71.1464 275.647 73.1592 278.84 73.1592H292.205C300.042 73.1592 301.491 73.4544 301.491 78.3925C301.491 83.3306 300.042 84.4846 294.218 84.4846C289.575 84.4846 284.637 84.1894 279.994 84.1894C274.466 84.1894 273.902 85.9338 273.902 90.2814V176.832C273.902 186.413 276.801 192.237 284.074 192.237C294.835 192.237 297.439 178.013 302.082 178.013C304.121 178.013 304.98 179.167 304.98 180.911C304.98 185.259 297.143 207.91 274.493 207.91C257.934 207.91 248.943 199.483 248.943 178.872V87.9735C248.943 84.4846 247.199 83.3306 241.966 83.3306H239.067C235.578 83.3306 233.539 83.0354 233.539 79.8417C233.539 77.8021 234.988 76.0577 239.926 71.71C252.11 61.5386 258.229 53.1117 266.066 38.8879C268.964 33.6546 269.555 33.3594 271.004 33.3594C273.339 33.3594 273.902 35.1038 273.902 38.5927V38.6195Z" fill="white"/>
<path d="M371.189 71.4412C376.422 72.5953 379.616 73.7761 380.77 75.2253C382.514 77.5602 382.514 83.357 382.514 96.722C382.514 104.854 381.36 106.303 378.73 106.303C376.1 106.303 375.536 103.7 370.894 92.938C366.814 83.3571 361.903 77.5602 352.295 77.5602C340.97 77.5602 331.952 85.3967 331.952 96.1585C331.952 106.33 338.93 113.012 352.859 120.849C368.237 129.571 377.844 135.958 383.051 143.795C387.399 150.477 389.438 156.274 389.438 164.701C389.438 191.7 368.532 207.99 339.199 207.99C334.556 207.99 326.129 207.399 319.151 205.387C315.367 204.233 311.315 203.347 309.57 200.744C307.826 197.845 307.826 190.868 307.826 181.582C307.826 168.512 307.826 162.125 311.61 162.125C314.803 162.125 315.957 165.614 317.138 169.693C322.372 186.842 329.054 199.885 343.278 199.885C356.348 199.885 365.633 191.163 365.633 178.093C365.633 170.82 363.594 164.138 355.462 156.891C350.819 152.544 344.137 148.465 333.965 142.668C315.099 131.933 308.416 121.171 308.416 106.947C308.416 83.1424 328.168 69.7773 354.603 69.7773C359.541 69.7773 366.519 70.3677 371.162 71.5218L371.189 71.4412Z" fill="white"/>
<path d="M549.79 121.708C549.79 142.909 541.954 163.815 530.333 179.22C516.968 197.228 498.397 208.553 479.503 208.553C453.659 208.553 437.396 187.647 437.396 155.388C437.396 112.985 469.922 68.8379 507.387 68.8379C533.527 68.8379 549.79 90.0395 549.79 121.708ZM478.913 200.422C489.648 200.422 500.41 189.096 511.44 166.445C522.175 144.09 527.408 121.707 527.408 106.034C527.408 87.1678 521.316 76.9965 508.541 76.9965C500.705 76.9965 491.688 83.679 483.556 97.044C467.292 123.774 460.019 153.671 460.019 170.82C460.019 190.867 466.407 200.448 478.886 200.448L478.913 200.422Z" fill="white"/>
<path d="M589 73.4808L591.899 63.3094C597.991 42.1078 606.123 27.884 615.435 18.0079C627.914 4.64284 641.575 0 654.645 0C667.714 0 675.551 6.38725 675.551 17.149C675.551 25.8712 670.022 30.8093 663.071 30.8093C654.94 30.8093 650.887 25.8712 650.887 18.8935V12.8014C650.887 10.1982 648.848 8.45376 646.54 8.45376C642.756 8.45376 638.703 11.057 634.624 15.9951C620.4 33.4125 619.219 53.7552 613.422 73.5076H636.073C637.817 73.5076 638.676 73.5075 638.676 75.252C638.676 75.5472 638.086 78.1504 637.227 80.4853C636.932 81.0757 636.368 82.2297 634.033 82.2297H611.383C607.894 96.4535 604.7 109.228 601.507 121.144L591.04 160.944C582.049 195.806 575.367 215.558 568.953 228.628C555.883 255.358 540.774 268.427 519.572 268.427C506.502 268.427 497.485 261.181 497.485 249.266C497.485 239.98 502.718 235.042 509.401 235.042C517.237 235.042 520.431 240.57 520.431 246.662C520.431 251.305 520.136 253.345 520.136 255.385C520.136 258.283 522.175 260.027 526.228 260.027C530.871 260.027 534.95 256.539 538.412 250.151C545.685 236.491 552.636 209.197 560.499 180.455C566.591 158.099 575.018 124.982 586.639 82.2834H568.926C567.182 82.2834 565.732 82.2834 565.732 80.5389C565.732 80.2437 566.323 77.6405 567.182 75.3057C567.477 74.4201 568.04 73.5613 570.08 73.5613H588.947L589 73.4808Z" fill="white"/>
<path d="M727.239 22.6516C738.565 22.6516 746.992 21.4976 755.123 21.4976C759.471 21.4976 762.101 22.3564 762.101 25.8453C762.101 29.9246 757.458 29.9246 750.185 30.7834C742.912 31.6421 740.9 35.1309 740.9 42.9675V181.234C740.9 192.264 744.093 195.189 751.071 196.048C758.049 197.202 761.806 198.383 761.806 201.845C761.806 204.448 759.471 205.334 754.828 205.334C751.93 205.334 743.208 204.18 727.239 204.18C713.874 204.18 702.844 205.334 699.651 205.334C695.303 205.334 692.673 205.038 692.673 201.254C692.673 197.47 697.906 197.202 704.884 195.726C711.566 194.572 713.016 192.827 713.016 182.951V42.9675C713.016 32.5009 710.976 31.6421 701.985 30.4881C694.444 29.6293 692.7 29.3341 692.7 25.8453C692.7 23.2421 694.444 21.4976 699.973 21.4976C707.809 21.4976 716.236 22.6516 727.266 22.6516H727.239Z" fill="white"/>
<path d="M807.699 74.9306V85.102C807.699 89.7448 807.994 91.4893 809.443 91.4893C810.892 91.4893 812.932 89.7448 816.126 86.8464C824.848 79.3051 835.019 71.1734 847.794 71.1734C860.568 71.1734 868.995 76.9703 874.792 87.1416C876.536 90.3353 877.691 92.0797 878.871 92.0797C880.052 92.0797 882.924 89.1813 887.298 85.3972C896.584 77.2655 906.755 71.1734 919.53 71.1734C937.538 71.1734 953.238 83.0892 953.238 105.149V184.159C953.238 193.149 955.841 196.343 963.704 197.819C967.488 198.705 969.501 199.859 969.501 201.603C969.501 204.206 968.052 205.387 964.268 205.387C958.739 205.387 949.158 204.233 939.578 204.233C930.587 204.233 921.865 205.387 916.041 205.387C912.552 205.387 910.808 204.501 910.808 201.898C910.808 199.859 912.552 198.409 917.49 197.551C925.917 196.101 928.225 192.613 928.225 182.146V111C928.225 95.8906 920.389 86.6048 906.138 86.6048C893.068 86.6048 880.857 95.5954 880.857 109.256V186.52C880.857 195.243 882.897 196.101 891.029 197.551C894.813 198.141 896.557 199.295 896.557 201.603C896.557 204.501 894.222 205.387 890.465 205.387C885.232 205.387 877.986 204.233 868.405 204.233C859.414 204.233 851.846 205.387 846.049 205.387C842.265 205.387 840.521 204.233 840.521 201.898C840.521 199.859 841.97 198.409 846.049 197.551C853.886 195.806 856.221 194.357 856.221 183.032V112.744C856.221 94.1461 847.498 86.6048 836.468 86.6048C823.103 86.6048 808.879 97.3398 808.879 112.154V186.52C808.879 192.613 810.329 196.397 816.126 197.551C823.103 199 823.667 199.59 823.667 201.898C823.667 204.501 821.922 205.387 818.729 205.387C817.279 205.387 808.262 204.233 794.334 204.233C782.418 204.233 776.03 205.387 773.427 205.387C768.489 205.387 767.63 203.643 767.63 201.603C767.63 199.268 769.08 197.819 772.864 197.255C780.7 196.101 783.894 194.92 783.894 182.441V104.613C783.894 98.8158 783.599 94.4413 777.507 93.8778C771.119 93.2873 768.516 92.9922 768.516 90.0938C768.516 88.0541 770.26 87.1953 772.3 86.6048C784.216 82.8208 791.757 78.4731 798.735 73.8302C801.928 71.4954 803.968 69.751 805.417 69.751C807.162 69.751 807.752 71.4954 807.752 74.9843L807.699 74.9306Z" fill="white"/>
<path d="M1066.49 91.194V177.449C1066.49 183.541 1068.53 189.365 1074.62 189.365C1084.5 189.365 1083.91 178.63 1087.4 178.63C1089.14 178.63 1089.73 180.375 1089.73 183.568C1089.73 191.11 1078.7 207.105 1063 207.105C1054.58 207.105 1048.78 202.167 1044.99 191.432C1044.14 188.533 1042.95 187.352 1041.8 187.352C1037.45 187.352 1023.79 207.963 1000.55 207.963C985.442 207.963 975.861 197.229 975.861 181.824C975.861 169.344 981.658 159.173 1010.43 141.165L1036.27 124.902C1039.47 122.862 1041.51 119.373 1041.51 114.435V94.978C1041.51 84.2431 1038.31 77.829 1029.32 77.829C1017.41 77.829 1009.57 86.2559 1004.93 101.07C1000.28 115.294 990.407 120.527 982.839 120.527C977.31 120.527 975.298 118.488 975.298 112.986C975.298 95.2733 1001.44 69.6973 1036.3 69.6973C1053.72 69.6973 1066.52 73.1861 1066.52 91.194H1066.49ZM1016.81 192.854C1026.4 192.854 1041.51 180.938 1041.51 169.049V135.932C1041.51 133.892 1040.65 133.034 1039.17 133.034C1036.57 133.034 1029 137.676 1018.26 147.257C1007.53 156.838 1002 166.419 1002 176.295C1002 187.621 1008.39 192.854 1016.81 192.854Z" fill="white"/>
<path d="M1163.78 74.9305C1168.12 76.9701 1171.61 79.0098 1177.14 79.0098H1193.11C1200.65 79.0098 1203.85 79.8687 1203.85 85.3972C1203.85 90.9257 1202.4 91.194 1195.12 91.194H1189.33C1185.84 91.194 1184.09 91.7844 1184.09 92.6432C1184.09 94.0924 1188.44 102.815 1188.44 116.743C1188.44 137.354 1176.82 157.107 1152.13 160.891C1128.59 166.419 1120.19 169.613 1120.19 176.859C1120.19 182.951 1127.17 186.145 1136.75 186.145C1143.43 186.145 1150.41 185.849 1157.09 185.849C1190.51 185.849 1205.03 198.06 1205.03 221.865C1205.03 248.864 1174.81 268.348 1139.97 268.348C1114.69 268.348 1091.48 257.022 1091.48 234.667C1091.48 222.751 1099.02 216.068 1110.08 210.862C1115.01 208.527 1116.76 207.373 1116.76 206.514C1116.76 205.36 1113.27 201.871 1106.29 195.189C1099.02 188.211 1095.56 184.427 1095.56 182.119C1095.56 177.181 1099.61 175.141 1110.67 169.64C1113 168.486 1124.89 163.252 1124.89 160.918C1124.89 160.327 1123.44 159.468 1121.99 158.583C1106.88 150.451 1096.71 136.495 1096.71 115.294C1096.71 90.6036 1116.46 69.6973 1142.9 69.6973C1151.32 69.6973 1158.3 72.3004 1163.8 74.9305H1163.78ZM1112.95 232.359C1112.95 248.622 1126.31 259.947 1144.62 259.947C1164.96 259.947 1181.78 248.622 1181.78 228.575C1181.78 214.914 1173.36 207.963 1149.55 207.963C1141.72 207.963 1130.95 208.554 1125.45 210.003C1117.62 214.351 1112.97 223.959 1112.97 232.359H1112.95ZM1143.73 155.684C1155.65 155.684 1163.78 143.473 1163.78 119.078C1163.78 94.6829 1155.05 76.675 1141.72 76.675C1130.95 76.675 1121.67 88.0003 1121.67 113.281C1121.67 138.562 1130.1 155.684 1143.73 155.684Z" fill="white"/>
<path d="M1247.43 73.4809V183.568C1247.43 194.33 1250.92 196.047 1257.6 197.228C1263.99 198.382 1264.85 199.831 1264.85 201.871C1264.85 204.206 1264.26 205.36 1259.91 205.36C1254.11 205.36 1247.7 204.206 1235.22 204.206C1223.89 204.206 1213.16 205.36 1209.67 205.36C1206.48 205.36 1205.03 203.911 1205.03 201.871C1205.03 198.677 1207.36 197.792 1212.86 196.933C1220.7 195.779 1222.44 193.149 1222.44 183.273V104.559C1222.44 95.2728 1219.25 93.8236 1211.41 92.3744C1208.22 91.7839 1206.48 91.2204 1206.48 88.8855C1206.48 86.5507 1208.51 85.3967 1213.16 83.9475C1223.03 81.049 1231.17 77.5601 1238.71 72.9173C1241.61 71.1728 1244.24 69.7236 1245.09 69.7236C1247.13 69.7236 1247.43 71.468 1247.43 73.5077V73.4809ZM1249.76 33.9763C1249.76 45.3016 1243.38 51.3937 1235.24 51.3937C1226.52 51.3937 1220.43 44.416 1220.43 34.2446C1220.43 23.5096 1226.82 16.8271 1235.24 16.8271C1243.67 16.8271 1249.76 23.2145 1249.76 33.9763Z" fill="white"/>
<path d="M1308.11 75.8158V85.9871C1308.11 89.4759 1308.11 91.2204 1309.26 91.2204C1311.01 91.2204 1313.91 88.8856 1317.69 85.6919C1325.53 78.7142 1336.58 71.1729 1349.36 71.1729C1370.56 71.1729 1384.78 85.3967 1384.78 108.343V183.863C1384.78 190.841 1386.23 196.638 1394.36 197.523C1399.3 198.114 1401.9 198.677 1401.9 201.871C1401.9 204.474 1399.87 205.36 1396.67 205.36C1393.48 205.36 1385.64 204.206 1372.28 204.206C1360.36 204.206 1353.11 205.36 1349.63 205.36C1346.14 205.36 1344.98 204.206 1344.98 201.576C1344.98 199.831 1346.73 198.382 1350.22 197.792C1357.19 196.342 1359.8 193.739 1359.8 186.466V111.536C1359.8 95.8633 1350.81 86.2555 1337.44 86.2555C1322.04 86.2555 1308.97 98.1713 1308.97 111.241V186.761C1308.97 196.047 1313.31 196.933 1317.69 197.792C1322.92 198.946 1325.82 198.677 1325.82 201.576C1325.82 204.474 1323.78 205.36 1321.47 205.36C1320.02 205.36 1310.15 204.206 1295.92 204.206C1283.74 204.206 1275.58 205.36 1273.27 205.36C1269.19 205.36 1267.48 204.206 1267.48 201.576C1267.48 199.241 1269.22 197.523 1273.01 197.228C1280.84 196.342 1283.77 194.034 1283.77 182.119V104.29C1283.77 96.1585 1282.32 94.7093 1277.08 93.8236C1271.56 92.938 1268.36 93.2332 1268.36 90.3348C1268.36 88.8856 1268.95 87.4363 1273.89 85.9871C1283.47 83.3839 1296.84 76.1109 1301.18 72.3269C1303.79 69.992 1304.97 69.7236 1305.83 69.7236C1307.28 69.7236 1308.16 70.8777 1308.16 75.8158H1308.11Z" fill="white"/>
<path d="M1498.95 91.194V177.449C1498.95 183.541 1500.99 189.365 1507.08 189.365C1516.96 189.365 1516.37 178.63 1519.85 178.63C1521.6 178.63 1522.19 180.375 1522.19 183.568C1522.19 191.11 1511.16 207.105 1495.46 207.105C1487.03 207.105 1481.23 202.167 1477.45 191.432C1476.59 188.533 1475.41 187.352 1474.26 187.352C1469.91 187.352 1456.25 207.963 1433.01 207.963C1417.9 207.963 1408.32 197.229 1408.32 181.824C1408.32 169.344 1414.11 159.173 1442.88 141.165L1468.73 124.902C1471.92 122.862 1473.96 119.373 1473.96 114.435V94.978C1473.96 84.2431 1470.77 77.829 1461.78 77.829C1449.86 77.829 1442.03 86.2559 1437.38 101.07C1432.74 115.294 1422.86 120.527 1415.3 120.527C1409.77 120.527 1407.75 118.488 1407.75 112.986C1407.75 95.2733 1433.89 69.6973 1468.76 69.6973C1486.17 69.6973 1498.97 73.1861 1498.97 91.194H1498.95ZM1449.27 192.854C1458.85 192.854 1473.96 180.938 1473.96 169.049V135.932C1473.96 133.892 1473.1 133.034 1471.63 133.034C1469.02 133.034 1461.46 137.676 1450.72 147.257C1439.99 156.838 1434.46 166.419 1434.46 176.295C1434.46 187.621 1440.84 192.854 1449.27 192.854Z" fill="white"/>
<path d="M1559.36 38.6195V67.3624C1559.36 71.1464 1561.1 73.1592 1564.3 73.1592H1577.66C1585.5 73.1592 1586.95 73.4544 1586.95 78.3925C1586.95 83.3306 1585.5 84.4846 1579.68 84.4846C1575.03 84.4846 1570.09 84.1894 1565.45 84.1894C1559.92 84.1894 1559.36 85.9338 1559.36 90.2814V176.832C1559.36 186.413 1562.26 192.237 1569.53 192.237C1580.29 192.237 1582.9 178.013 1587.54 178.013C1589.58 178.013 1590.44 179.167 1590.44 180.911C1590.44 185.259 1582.6 207.91 1559.95 207.91C1543.39 207.91 1534.4 199.483 1534.4 178.872V87.9735C1534.4 84.4846 1532.66 83.3306 1527.42 83.3306H1524.52C1521.04 83.3306 1519 83.0354 1519 79.8417C1519 77.8021 1520.45 76.0577 1525.38 71.71C1537.57 61.5386 1543.69 53.1117 1551.52 38.8879C1554.42 33.6546 1555.01 33.3594 1556.46 33.3594C1558.8 33.3594 1559.36 35.1038 1559.36 38.5927V38.6195Z" fill="white"/>
<path d="M1630.8 73.4809V183.568C1630.8 194.33 1634.29 196.047 1640.97 197.228C1647.36 198.382 1648.22 199.831 1648.22 201.871C1648.22 204.206 1647.63 205.36 1643.28 205.36C1637.48 205.36 1631.07 204.206 1618.59 204.206C1607.26 204.206 1596.53 205.36 1593.04 205.36C1589.85 205.36 1588.4 203.911 1588.4 201.871C1588.4 198.677 1590.73 197.792 1596.23 196.933C1604.07 195.779 1605.82 193.149 1605.82 183.273V104.559C1605.82 95.2728 1602.62 93.8236 1594.79 92.3744C1591.59 91.7839 1589.85 91.2204 1589.85 88.8855C1589.85 86.5507 1591.89 85.3967 1596.53 83.9475C1606.41 81.049 1614.54 77.5601 1622.08 72.9173C1624.98 71.1728 1627.61 69.7236 1628.47 69.7236C1630.51 69.7236 1630.8 71.468 1630.8 73.5077V73.4809ZM1633.14 33.9763C1633.14 45.3016 1626.75 51.3937 1618.62 51.3937C1609.89 51.3937 1603.8 44.416 1603.8 34.2446C1603.8 23.5096 1610.19 16.8271 1618.62 16.8271C1627.04 16.8271 1633.14 23.2145 1633.14 33.9763Z" fill="white"/>
<path d="M1760.05 138.535C1760.05 177.154 1736.24 207.963 1702.83 207.963C1669.42 207.963 1645.61 176.295 1645.61 138.83C1645.61 101.365 1668.86 69.6973 1702.83 69.6973C1736.81 69.6973 1760.05 100.775 1760.05 138.535ZM1703.69 199.805C1722.29 199.805 1733.02 172.511 1733.02 141.729C1733.02 106.008 1721.4 77.829 1702.24 77.829C1684.82 77.829 1672.61 101.365 1672.61 135.905C1672.61 170.445 1684.53 199.805 1703.69 199.805Z" fill="white"/>
<path d="M1800.12 75.8158V85.9871C1800.12 89.4759 1800.12 91.2204 1801.27 91.2204C1803.02 91.2204 1805.91 88.8856 1809.7 85.6919C1817.54 78.7142 1828.59 71.1729 1841.37 71.1729C1862.57 71.1729 1876.79 85.3967 1876.79 108.343V183.863C1876.79 190.841 1878.24 196.638 1886.37 197.523C1891.31 198.114 1893.91 198.677 1893.91 201.871C1893.91 204.474 1891.88 205.36 1888.68 205.36C1885.49 205.36 1877.65 204.206 1864.29 204.206C1852.37 204.206 1845.12 205.36 1841.64 205.36C1838.15 205.36 1836.99 204.206 1836.99 201.576C1836.99 199.831 1838.74 198.382 1842.23 197.792C1849.2 196.342 1851.81 193.739 1851.81 186.466V111.536C1851.81 95.8633 1842.82 86.2555 1829.45 86.2555C1814.05 86.2555 1800.98 98.1713 1800.98 111.241V186.761C1800.98 196.047 1805.32 196.933 1809.7 197.792C1814.93 198.946 1817.83 198.677 1817.83 201.576C1817.83 204.474 1815.79 205.36 1813.48 205.36C1812.03 205.36 1802.16 204.206 1787.93 204.206C1775.75 204.206 1767.59 205.36 1765.28 205.36C1761.2 205.36 1759.49 204.206 1759.49 201.576C1759.49 199.241 1761.23 197.523 1765.01 197.228C1772.85 196.342 1775.78 194.034 1775.78 182.119V104.29C1775.78 96.1585 1774.33 94.7093 1769.09 93.8236C1763.57 92.938 1760.37 93.2332 1760.37 90.3348C1760.37 88.8856 1760.96 87.4363 1765.9 85.9871C1775.48 83.3839 1788.85 76.1109 1793.19 72.3269C1795.8 69.992 1796.98 69.7236 1797.84 69.7236C1799.29 69.7236 1800.17 70.8777 1800.17 75.8158H1800.12Z" fill="white"/>
<path d="M1950.62 184.212C1950.62 195.94 1942.09 205.172 1930.06 205.172C1918.04 205.172 1909.4 195.833 1909.4 184.212C1909.4 171.599 1918.98 163.145 1930.06 163.145C1942.33 163.145 1950.62 172.726 1950.62 184.212ZM1930.06 201.684C1939 201.684 1945.79 194.142 1945.79 184.212C1945.79 174.873 1939.35 166.607 1930.06 166.607C1920.78 166.607 1914.2 174.283 1914.2 184.212C1914.2 194.652 1921.53 201.684 1930.06 201.684ZM1937.44 172.833C1938.6 173.343 1939 173.585 1939 174.229V178.415H1937.71C1936.67 175.114 1934.52 173.424 1931.67 173.424C1928.02 173.424 1924.94 176.322 1924.94 183.515C1924.94 190.707 1927.33 194.089 1931.67 194.089C1934.87 194.089 1937.2 191.942 1938.65 188.694H1940.05L1939.11 193.176C1939 193.766 1938.41 194.115 1937.55 194.384C1935.75 195.028 1933.26 195.591 1931.06 195.591C1923.17 195.591 1918.44 191.244 1918.44 183.622C1918.44 177.127 1923.09 171.787 1931.73 171.787C1934.52 171.787 1936.37 172.377 1937.42 172.833H1937.44Z" fill="white"/>
</svg>