<svg width="811" height="443" viewBox="0 0 811 443" fill="none" xmlns="http://www.w3.org/2000/svg">
<path fill-rule="evenodd" clip-rule="evenodd" d="M432.031 0C366.262 0 310.575 38.211 270.339 97.9487C253.214 122.997 239.523 153.812 230.499 186.036L181.194 24.3C177.188 11.5337 173.138 8.89237 162.397 8.89237C149.63 8.89237 146.329 13.6027 142.235 29.6707C141.401 32.7716 140.202 37.2447 138.711 42.8066L138.71 42.8111C126.97 86.602 97.1394 197.869 85.2263 238.334L52.3421 349.049C49.3794 359.468 44.5628 374.317 40.0824 388.129C38.5047 392.993 36.9687 397.728 35.57 402.096C31.564 414.158 22.8033 419.529 15.4077 420.893C1.32066 423.579 0 426.924 0 431.635C0 436.917 3.0817 439.646 7.88009 440.263H100.546C106.753 439.779 110.011 437.842 110.011 431.635C110.011 424.103 101.006 422.586 91.6279 421.007C90.1525 420.758 88.6679 420.508 87.2076 420.233C75.806 418.208 65.7249 412.837 65.7249 400.071C65.7249 394.04 68.4101 380.613 77.1264 349.754C79.6809 340.581 81.6278 332.657 83.2922 325.883C89.0566 302.42 91.4335 292.746 103.936 292.746H185.817C199.989 292.746 201.85 299.706 209.624 328.776C212.91 341.063 217.253 357.301 224.027 378.632C228.033 391.398 230.058 399.411 230.058 404.121C230.058 418.252 220.022 419.529 209.28 420.893C199.904 422.258 191.848 423.579 191.848 431.635C191.848 436.917 195.457 439.646 203.513 440.263H354.112C377.796 440.263 400.379 434.76 421.378 424.987C506.912 385.191 566.165 274.08 566.165 171.157C566.165 68.2339 515.232 0.0439305 432.031 0.0439305V0ZM178.509 272.539H112.08C104.684 272.539 100.678 271.835 100.678 267.829C100.678 264.65 101.314 262.068 102.51 257.211L102.703 256.427C103.556 252.185 107.37 238.441 112.253 220.844L112.253 220.843C118.976 196.621 127.724 165.097 133.563 141.002C136.908 128.236 138.933 122.205 142.939 122.205C148.214 122.205 150.071 128.846 157.104 153.999C161.693 170.413 168.487 194.711 179.873 230.19C185.948 248.327 189.25 261.754 189.25 266.464C189.25 270.47 185.905 272.495 178.509 272.495V272.539ZM479.002 257C445.458 369.08 399.146 420.761 351.515 420.761C306.568 420.761 280.376 381.846 280.376 322.108C280.376 285.174 288.432 240.227 304.544 185.904C336.768 77.2143 383.739 19.5017 432.735 19.5017C477.682 19.5017 503.875 56.436 503.875 118.815C503.875 153.02 495.819 202.016 479.046 257H479.002ZM695.942 34.25C713.419 32.225 717.425 31.5647 717.425 23.5087C717.425 17.4777 713.418 13.4717 700.652 13.4717H573.825C561.058 13.4717 557.053 17.4777 557.053 23.5087C557.053 31.6087 561.059 32.225 578.535 34.25C599.314 36.9354 604.024 38.9163 604.024 63.1284V386.513C604.024 409.316 600.679 415.348 585.227 418.033C582.669 418.571 580.213 419.04 577.891 419.484C565.589 421.835 557.053 423.467 557.053 430.799C557.053 439.516 563.084 440.22 573.121 440.22H701.357C711.394 440.22 717.425 439.516 717.425 430.799C717.425 423.509 708.986 421.885 696.797 419.54L696.794 419.539C694.411 419.08 691.885 418.594 689.251 418.033C673.843 415.348 670.453 409.316 670.453 386.513V63.1284C670.453 38.9163 675.12 36.9354 695.942 34.25ZM776.721 442.442C796.443 442.442 810.442 427.299 810.442 408.061C810.442 389.22 796.839 373.504 776.721 373.504C758.54 373.504 742.824 387.371 742.824 408.061C742.824 427.123 757 442.442 776.721 442.442ZM802.518 408.061C802.518 424.349 791.381 436.719 776.721 436.719C762.722 436.719 750.704 425.186 750.704 408.061C750.704 391.773 761.49 379.183 776.721 379.183C791.953 379.183 802.518 392.741 802.518 408.061ZM791.38 391.685C791.38 390.628 790.72 390.232 788.827 389.396H788.783C787.067 388.647 784.029 387.679 779.451 387.679C765.276 387.679 757.66 396.439 757.66 407.093C757.66 419.595 765.408 426.726 778.35 426.726C781.96 426.726 786.054 425.802 789.003 424.745C790.412 424.305 791.381 423.733 791.557 422.764L793.097 415.413H790.808C788.431 420.739 784.601 424.261 779.363 424.261C772.231 424.261 768.313 418.714 768.313 406.917C768.313 395.119 773.376 390.364 779.363 390.364C784.029 390.364 787.551 393.138 789.268 398.552H791.38V391.685Z" fill="white"/>
</svg>
